<?xml version="1.0" encoding="UTF-8"?>
<svg version="1.1" xmlns="http://www.w3.org/2000/svg" width="70" height="67">
<path d="M0 0 C9.18238209 5.52499261 14.88086738 12.39260215 18.25 22.5 C19.01430754 34.35303173 18.74624205 43.14536452 11.0625 52.6875 C5.11995051 59.09011784 -2.315581 64.32516024 -11.19140625 64.90625 C-24.17869893 65.30180206 -33.38064385 63.73794564 -43.25 54.625 C-50.90253661 46.33607781 -52.21913819 37.66943436 -52.0234375 26.74609375 C-51.63039499 17.84037308 -47.16216009 11.46042278 -40.75 5.5 C-29.18633921 -3.44547344 -13.71978812 -6.46463768 0 0 Z " fill="#2D3A58" transform="translate(51.75,2.5)"/>
<path d="M0 0 C1.05320435 0.23771118 1.05320435 0.23771118 2.12768555 0.48022461 C5.10447541 1.01890592 7.93483803 1.20791726 10.95703125 1.31640625 C12.62475586 1.37924805 12.62475586 1.37924805 14.32617188 1.44335938 C15.47666016 1.48267578 16.62714844 1.52199219 17.8125 1.5625 C18.98232422 1.60568359 20.15214844 1.64886719 21.35742188 1.69335938 C24.23817031 1.79918279 27.11900123 1.90126825 30 2 C30 2.66 30 3.32 30 4 C24.06 4.33 18.12 4.66 12 5 C13.35996094 5.71027344 14.71992188 6.42054687 16.12109375 7.15234375 C17.89328014 8.08063186 19.66541279 9.00902257 21.4375 9.9375 C22.33533203 10.40607422 23.23316406 10.87464844 24.15820312 11.35742188 C25.01220703 11.80537109 25.86621094 12.25332031 26.74609375 12.71484375 C27.53685303 13.12855225 28.3276123 13.54226074 29.14233398 13.96850586 C31 15 31 15 32 16 C32.99460074 21.91787442 33.89686943 28.18789799 32 34 C27.47582181 39.49565629 19.74998503 42.43536613 13 44 C13 44.66 13 45.32 13 46 C11.56988027 46.86646667 10.13059381 47.71781829 8.6875 48.5625 C7.48673828 49.27599609 7.48673828 49.27599609 6.26171875 50.00390625 C4 51 4 51 1 50 C1.03222656 49.44054688 1.06445312 48.88109375 1.09765625 48.3046875 C0.99217637 41.01485603 -1.76235485 36.5709652 -6.02514648 30.91162109 C-7.26171875 29.19921875 -7.26171875 29.19921875 -9 26 C-8.23136148 22.25149476 -6.07212887 19.51138345 -3.9375 16.375 C-0.61802144 11.01214413 -0.02367216 6.2257779 0 0 Z " fill="#EBE6EA" transform="translate(17,9)"/>
<path d="M0 0 C6.88456907 -0.98812474 14.23627638 -2.00440702 21 0 C25.56256925 3.66345398 27.63138912 9.04515179 29.98828125 14.25244141 C31.45524257 16.78634805 33.36741222 17.84367238 36 19 C35.505 20.485 35.505 20.485 35 22 C34.195625 22.268125 33.39125 22.53625 32.5625 22.8125 C29.73713211 23.75629139 29.73713211 23.75629139 29.01953125 26.64453125 C28.68308594 27.75183594 28.34664062 28.85914063 28 30 C24.39580015 39.95121845 24.39580015 39.95121845 20 43 C13.50989844 44.63950452 6.57515333 43.79371494 0 43 C1.485 42.505 1.485 42.505 3 42 C3 41.34 3 40.68 3 40 C3.72445313 39.61328125 4.44890625 39.2265625 5.1953125 38.828125 C11.51697953 35.45666625 11.51697953 35.45666625 17.5625 31.625 C20 30 20 30 22 30 C22.88665092 23.94010761 23.71636003 17.68639264 21 12 C15.16510363 6.65292151 7.31638406 3.77108864 0 1 C0 0.67 0 0.34 0 0 Z " fill="#CBBAC4" transform="translate(27,13)"/>
<path d="M0 0 C1.37817968 5.08203756 1.76414856 7.58038922 -0.78515625 12.31640625 C-2.25262599 14.60624343 -3.80988342 16.779673 -5.41015625 18.984375 C-7.31584007 21.824153 -7.31584007 21.824153 -6.4765625 24.52734375 C-4.80609882 27.32470754 -3.08077663 30.07579601 -1.3125 32.8125 C2.54559951 39.2612655 2.54559951 39.2612655 1.9375 43.75 C1.4734375 45.35875 1.4734375 45.35875 1 47 C-3.80785834 45.86873921 -5.92619281 43.14919892 -8.640625 39.2734375 C-12.98816342 32.00255427 -14.0907742 24.65680576 -12.49609375 16.38671875 C-11.07999031 10.9246055 -9.44203518 7.68363893 -5 4 C-4.2575 3.236875 -3.515 2.47375 -2.75 1.6875 C-1 0 -1 0 0 0 Z " fill="#324A62" transform="translate(16,11)"/>
<path d="M0 0 C3.96 1.98 7.92 3.96 12 6 C12 12.27 12 18.54 12 25 C8 24 8 24 6 23 C5.67 30.26 5.34 37.52 5 45 C3.68 45.66 2.36 46.32 1 47 C0.36588768 31.32764407 -0.17386318 15.68632278 0 0 Z " fill="#3A5076" transform="translate(19,11)"/>
<path d="M0 0 C1.05320435 0.23771118 1.05320435 0.23771118 2.12768555 0.48022461 C5.10447541 1.01890592 7.93483803 1.20791726 10.95703125 1.31640625 C12.62475586 1.37924805 12.62475586 1.37924805 14.32617188 1.44335938 C15.47666016 1.48267578 16.62714844 1.52199219 17.8125 1.5625 C18.98232422 1.60568359 20.15214844 1.64886719 21.35742188 1.69335938 C24.23817031 1.79918279 27.11900123 1.90126825 30 2 C30 2.33 30 2.66 30 3 C25.87536584 3.19622046 21.75028427 3.38050216 17.625 3.5625 C16.449375 3.61857422 15.27375 3.67464844 14.0625 3.73242188 C12.94101562 3.78076172 11.81953125 3.82910156 10.6640625 3.87890625 C9.62717285 3.9260376 8.5902832 3.97316895 7.52197266 4.02172852 C5 4 5 4 3 3 C3 18.18 3 33.36 3 49 C6.17009472 47.37921338 6.17009472 47.37921338 6.51171875 44.8359375 C6.56972656 44.02382813 6.62773437 43.21171875 6.6875 42.375 C6.75324219 41.55773438 6.81898437 40.74046875 6.88671875 39.8984375 C6.92410156 39.27195313 6.96148437 38.64546875 7 38 C7.33 38 7.66 38 8 38 C8.33 41.3 8.66 44.6 9 48 C6.6875 49.5625 6.6875 49.5625 4 51 C3.01 50.67 2.02 50.34 1 50 C1.03222656 49.44054688 1.06445312 48.88109375 1.09765625 48.3046875 C0.99217637 41.01485603 -1.76235485 36.5709652 -6.02514648 30.91162109 C-7.26171875 29.19921875 -7.26171875 29.19921875 -9 26 C-8.23136148 22.25149476 -6.07212887 19.51138345 -3.9375 16.375 C-0.61802144 11.01214413 -0.02367216 6.2257779 0 0 Z " fill="#E2C7CD" transform="translate(17,9)"/>
<path d="M0 0 C3.96 1.98 7.92 3.96 12 6 C12 7.98 12 9.96 12 12 C8.38144425 11.37611108 7.8290723 10.8290723 5 8 C5 12.62 5 17.24 5 22 C6.134375 21.01 7.26875 20.02 8.4375 19 C11.875 16 11.875 16 13 16 C13.6875 19.0625 13.6875 19.0625 13 23 C4.64864865 30 4.64864865 30 1 30 C0.67 20.1 0.34 10.2 0 0 Z " fill="#4E608B" transform="translate(34,19)"/>
<path d="M0 0 C0.93134766 0.00902344 1.86269531 0.01804688 2.82226562 0.02734375 C5.1109436 0.05081737 7.39908672 0.08365271 9.6875 0.125 C9.6875 0.455 9.6875 0.785 9.6875 1.125 C7.82158203 1.12886719 7.82158203 1.12886719 5.91796875 1.1328125 C-4.10865877 1.30415615 -12.08965339 1.76311341 -20.3125 8.125 C-20.98539063 8.64191406 -21.65828125 9.15882812 -22.3515625 9.69140625 C-28.40314357 15.03482358 -31.79471137 21.83280479 -32.7578125 29.81640625 C-33.07061021 40.14915743 -31.4524324 47.77204792 -24.625 55.625 C-24.02300781 56.2540625 -23.42101562 56.883125 -22.80078125 57.53125 C-21.3125 59.125 -21.3125 59.125 -20.3125 61.125 C-26.41169968 58.53249902 -31.49729904 52.57867858 -34.3125 46.625 C-36.71085278 38.83427233 -36.83805788 27.70278114 -33.75 20.0625 C-26.373051 6.70145251 -15.00314086 -0.27567609 0 0 Z " fill="#334250" transform="translate(35.3125,-0.12499999999999999)"/>
<path d="M0 0 C0.495 0.99 0.495 0.99 1 2 C0.09378906 1.97679687 -0.81242187 1.95359375 -1.74609375 1.9296875 C-14.41015449 1.74207179 -23.31677491 2.70177312 -32.79296875 11.703125 C-38.98742198 18.49408113 -41.43641121 26.34367736 -41.26953125 35.4765625 C-40.26683022 44.8641692 -35.76705797 51.65588316 -29 58 C-27.68441297 59.02323436 -26.35622245 60.03126968 -25 61 C-26.98 61.495 -26.98 61.495 -29 62 C-38.31358964 52.2883937 -43.34640471 44.6843939 -43.453125 30.99584961 C-43.22854579 22.01376103 -39.21870176 15.06498809 -33.25 8.5625 C-22.84451115 -0.75381618 -13.36353987 -0.61741201 0 0 Z " fill="#9EACB9" transform="translate(45,1)"/>
<path d="M0 0 C16.43927776 -1.93890675 16.43927776 -1.93890675 20.68505859 1.27587891 C23.61886909 4.77303165 25.38712575 8.76111027 27 13 C26.01 13.495 26.01 13.495 25 14 C22.47802734 12.92016602 22.47802734 12.92016602 19.3359375 11.25390625 C18.21445312 10.66416016 17.09296875 10.07441406 15.9375 9.46679688 C14.74990859 8.83220229 13.56240977 8.19743439 12.375 7.5625 C11.18007348 6.93090984 9.98476543 6.30004094 8.7890625 5.66992188 C5.85553392 4.12035638 2.92614478 2.56345147 0 1 C0 0.67 0 0.34 0 0 Z " fill="#EA261D" transform="translate(27,13)"/>
<path d="M0 0 C5.51060632 -0.11979579 8.05836859 1.54162989 12.1875 5.1875 C18.50923541 11.25022652 22.99860723 17.08172624 23.23046875 26.19921875 C23.22652804 27.69537587 23.21202396 29.19153869 23.1875 30.6875 C23.18685547 31.44611328 23.18621094 32.20472656 23.18554688 32.98632812 C23.15970931 36.23899012 23.03491238 38.89526286 22 42 C20.515 42.495 20.515 42.495 19 43 C19.02618408 42.38068604 19.05236816 41.76137207 19.0793457 41.12329102 C19.18439422 38.26996053 19.24866049 35.41703825 19.3125 32.5625 C19.35439453 31.58861328 19.39628906 30.61472656 19.43945312 29.61132812 C19.58132318 21.12749883 17.14809477 15.76022431 11.75 9.3125 C8.59352877 6.65819465 5.27480826 4.43821469 1.79296875 2.234375 C1.20128906 1.82703125 0.60960937 1.4196875 0 1 C0 0.67 0 0.34 0 0 Z " fill="#586170" transform="translate(47,3)"/>
<path d="M0 0 C0 3.64617007 -1.03409884 5.0526866 -2.9375 8.125 C-3.48277344 9.01445313 -4.02804688 9.90390625 -4.58984375 10.8203125 C-6 13 -6 13 -7 14 C-9.53049402 14.07313567 -12.03304837 14.09247527 -14.5625 14.0625 C-15.62887695 14.05573242 -15.62887695 14.05573242 -16.71679688 14.04882812 C-18.47790013 14.03700864 -20.23896036 14.01907263 -22 14 C-19.74534233 11.54352682 -17.44154514 9.94987474 -14.55078125 8.30078125 C-13.70322266 7.81416016 -12.85566406 7.32753906 -11.98242188 6.82617188 C-11.10134766 6.32666016 -10.22027344 5.82714844 -9.3125 5.3125 C-8.41982422 4.80138672 -7.52714844 4.29027344 -6.60742188 3.76367188 C-4.40735735 2.50481142 -2.20485553 1.25044404 0 0 Z " fill="#F62516" transform="translate(53,40)"/>
<path d="M0 0 C1 2 1 2 0.5 4.1875 C-3.19120671 11.10851258 -9.26587253 15.56150518 -16.2578125 18.90625 C-24.26207701 21.245701 -35.01115349 21.66294884 -43 19 C-43.33 18.01 -43.66 17.02 -44 16 C-42.75476563 16.23783203 -42.75476563 16.23783203 -41.484375 16.48046875 C-30.30034253 18.1480431 -19.23118267 18.20292412 -9.7578125 11.38671875 C-5.68666334 8.02391972 -2.66236735 4.54821088 0 0 Z " fill="#838D9B" transform="translate(65,47)"/>
<path d="M0 0 C4.20059624 1.40019875 5.19051525 4.36825877 7.1875 8.0625 C7.55552734 8.72572266 7.92355469 9.38894531 8.30273438 10.07226562 C9.21012062 11.71027457 10.10615573 13.35456221 11 15 C10.34 15.66 9.68 16.32 9 17 C8.50355548 18.90223599 8.50355548 18.90223599 8.3125 21 C8.22613281 21.70125 8.13976563 22.4025 8.05078125 23.125 C7.85010484 25.0929304 7.85010484 25.0929304 9 27 C7.02 27.66 5.04 28.32 3 29 C3 23.39 3 17.78 3 12 C4.32 12.33 5.64 12.66 7 13 C6.4946875 12.14535156 5.989375 11.29070313 5.46875 10.41015625 C4.8190625 9.30542969 4.169375 8.20070313 3.5 7.0625 C2.8503125 5.96035156 2.200625 4.85820312 1.53125 3.72265625 C0 1 0 1 0 0 Z " fill="#E5BCC1" transform="translate(46,13)"/>
<path d="M0 0 C3.96 1.98 7.92 3.96 12 6 C12 7.98 12 9.96 12 12 C10.0625 11.625 10.0625 11.625 8 11 C7.67 10.34 7.34 9.68 7 9 C6.01 8.67 5.02 8.34 4 8 C3.21311555 10.77723925 2.88050076 13.22610077 2.90234375 16.109375 C2.90556641 16.86347656 2.90878906 17.61757813 2.91210938 18.39453125 C2.92048828 19.17183594 2.92886719 19.94914062 2.9375 20.75 C2.94201172 21.54277344 2.94652344 22.33554687 2.95117188 23.15234375 C2.96291435 25.10159508 2.98084854 27.05080738 3 29 C2.34 29.33 1.68 29.66 1 30 C0.67 20.1 0.34 10.2 0 0 Z " fill="#425582" transform="translate(34,19)"/>
<path d="M0 0 C0.66 0 1.32 0 2 0 C2 5.94 2 11.88 2 18 C1.34 18 0.68 18 0 18 C-0.33 15.69 -0.66 13.38 -1 11 C-1.78375 11.825 -2.5675 12.65 -3.375 13.5 C-6 16 -6 16 -8 16 C-8 11.38 -8 6.76 -8 2 C-4.95139986 3.01620005 -4.13333078 3.77391571 -2 6 C-1.34 6.33 -0.68 6.66 0 7 C0 4.69 0 2.38 0 0 Z " fill="#F6F5F7" transform="translate(47,25)"/>
<path d="M0 0 C0.33 0 0.66 0 1 0 C1.84800767 7.692641 2.12152487 15.26291674 2 23 C-1.38682762 19.78301329 -4.07693782 16.276283 -6 12 C-5.5625 9.4375 -5.5625 9.4375 -4 7 C-3.28823494 5.73108551 -2.58005187 4.4601568 -1.875 3.1875 C-1.25625 2.135625 -0.6375 1.08375 0 0 Z " fill="#F02419" transform="translate(16,23)"/>
<path d="M0 0 C0.33 0 0.66 0 1 0 C1 7.59 1 15.18 1 23 C0.01 23 -0.98 23 -2 23 C-2.0580476 19.72924117 -2.09361165 16.45861476 -2.125 13.1875 C-2.14175781 12.25873047 -2.15851562 11.32996094 -2.17578125 10.37304688 C-2.18222656 9.48037109 -2.18867188 8.58769531 -2.1953125 7.66796875 C-2.20578613 6.84578857 -2.21625977 6.0236084 -2.22705078 5.17651367 C-2 3 -2 3 0 0 Z " fill="#415883" transform="translate(23,33)"/>
<path d="M0 0 C0.33 0 0.66 0 1 0 C1 9.24 1 18.48 1 28 C4.17009472 26.37921338 4.17009472 26.37921338 4.51171875 23.8359375 C4.56972656 23.02382813 4.62773437 22.21171875 4.6875 21.375 C4.75324219 20.55773437 4.81898437 19.74046875 4.88671875 18.8984375 C4.92410156 18.27195312 4.96148438 17.64546875 5 17 C5.33 17 5.66 17 6 17 C6.33 20.3 6.66 23.6 7 27 C4.6875 28.5625 4.6875 28.5625 2 30 C1.01 29.67 0.02 29.34 -1 29 C-0.67 19.43 -0.34 9.86 0 0 Z " fill="#A7B1C0" transform="translate(19,30)"/>
<path d="M0 0 C0.70213623 0.15847412 1.40427246 0.31694824 2.12768555 0.48022461 C5.10447541 1.01890592 7.93483803 1.20791726 10.95703125 1.31640625 C12.62475586 1.37924805 12.62475586 1.37924805 14.32617188 1.44335938 C15.47666016 1.48267578 16.62714844 1.52199219 17.8125 1.5625 C18.98232422 1.60568359 20.15214844 1.64886719 21.35742188 1.69335938 C24.23817031 1.79918279 27.11900123 1.90126825 30 2 C30 2.33 30 2.66 30 3 C25.87536584 3.19622046 21.75028427 3.38050216 17.625 3.5625 C16.449375 3.61857422 15.27375 3.67464844 14.0625 3.73242188 C12.94101562 3.78076172 11.81953125 3.82910156 10.6640625 3.87890625 C9.62717285 3.9260376 8.5902832 3.97316895 7.52197266 4.02172852 C5 4 5 4 3 3 C2.67 6.63 2.34 10.26 2 14 C0.06604999 10.13209997 -0.23289353 8.8499541 -0.125 4.75 C-0.09792969 3.41195313 -0.09792969 3.41195313 -0.0703125 2.046875 C-0.04710938 1.37140625 -0.02390625 0.6959375 0 0 Z " fill="#9BA2AE" transform="translate(17,9)"/>
<path d="M0 0 C0.66 0 1.32 0 2 0 C2.1959375 0.68964844 2.391875 1.37929688 2.59375 2.08984375 C5.48630697 11.17895595 10.23793879 17.45567056 18 23 C16.68 23.33 15.36 23.66 14 24 C7.01726323 16.71885568 1.03678679 10.36786792 0 0 Z " fill="#97A1AF" transform="translate(2,39)"/>
<path d="M0 0 C1.78546587 2.67819881 2.64939285 4.69530882 3.6875 7.6875 C5.53131533 12.45767374 7.99542448 15.73183543 11.51171875 19.40625 C13 21 13 21 14 23 C10.46608031 21.51828928 8.40069674 19.54451438 5.875 16.6875 C5.19179687 15.92824219 4.50859375 15.16898438 3.8046875 14.38671875 C0.22359085 9.65067967 -0.23027047 5.87189698 0 0 Z " fill="#1D3954" transform="translate(1,38)"/>
<path d="M0 0 C1.32 0.33 2.64 0.66 4 1 C4 3.97 4 6.94 4 10 C2.02 10.99 2.02 10.99 0 12 C0 8.04 0 4.08 0 0 Z " fill="#EC1615" transform="translate(50,28)"/>
<path d="M0 0 C1.98 0.99 1.98 0.99 4 2 C4 4.97 4 7.94 4 11 C2.68 10.67 1.36 10.34 0 10 C0 6.7 0 3.4 0 0 Z " fill="#CED2DA" transform="translate(23,18)"/>
<path d="M0 0 C5.61 0.66 11.22 1.32 17 2 C17 2.33 17 2.66 17 3 C14.89651926 3.19504458 12.79217415 3.38078496 10.6875 3.5625 C9.51574219 3.66691406 8.34398437 3.77132812 7.13671875 3.87890625 C4 4 4 4 1 3 C0.67 2.01 0.34 1.02 0 0 Z " fill="#79828F" transform="translate(21,63)"/>
<path d="M0 0 C1.98 0.99 3.96 1.98 6 3 C5 6 5 6 2.9375 7.1875 C2.298125 7.455625 1.65875 7.72375 1 8 C0 7 0 7 -0.0625 3.4375 C-0.041875 2.303125 -0.02125 1.16875 0 0 Z " fill="#D7949A" transform="translate(57,29)"/>
<path d="M0 0 C0.33 0 0.66 0 1 0 C1 5.61 1 11.22 1 17 C0.01 17.33 -0.98 17.66 -2 18 C-1.34 12.06 -0.68 6.12 0 0 Z " fill="#8F9BA8" transform="translate(68,28)"/>
<path d="M0 0 C1.75 0.125 1.75 0.125 4 1 C6.3125 3.875 6.3125 3.875 8 7 C7.67 7.99 7.34 8.98 7 10 C6.5875 9.4225 6.175 8.845 5.75 8.25 C4.02870249 5.92980716 4.02870249 5.92980716 1.8125 3.875 C0 2 0 2 0 0 Z " fill="#49505B" transform="translate(60,12)"/>
<path d="M0 0 C-1 3 -1 3 -2.75 4.25 C-5.52724898 5.17574966 -7.21571665 4.77341204 -10 4 C-8.66666667 3.33333333 -7.33333333 2.66666667 -6 2 C-5.29875 1.62875 -4.5975 1.2575 -3.875 0.875 C-2 0 -2 0 0 0 Z " fill="#858C9D" transform="translate(53,61)"/>
<path d="M0 0 C0.66 0 1.32 0 2 0 C2.33 2.64 2.66 5.28 3 8 C2.01 8.33 1.02 8.66 0 9 C0 6.03 0 3.06 0 0 Z " fill="#FBF8F9" transform="translate(55,29)"/>
<path d="M0 0 C2.31 0.33 4.62 0.66 7 1 C7 1.99 7 2.98 7 4 C4.97954558 3.39816251 2.97888961 2.72693904 1 2 C0.67 1.34 0.34 0.68 0 0 Z " fill="#717D8B" transform="translate(47,3)"/>
</svg>
