<?xml version="1.0" encoding="UTF-8"?>
<svg version="1.1" xmlns="http://www.w3.org/2000/svg" width="1012" height="307">
<path d="M0 0 C38.94 0 77.88 0 118 0 C118 17.16 118 34.32 118 52 C79.06 52 40.12 52 0 52 C0 34.84 0 17.68 0 0 Z " fill="#FEFEFD" transform="translate(574,185)"/>
<path d="M0 0 C2.5625 2.0625 2.5625 2.0625 4 4 C4 4.66 4 5.32 4 6 C4.66 6 5.32 6 6 6 C6.25007812 5.38511719 6.50015625 4.77023438 6.7578125 4.13671875 C8.21428336 1.63140567 9.27589622 1.0139725 11.875 -0.1875 C12.55304688 -0.51105469 13.23109375 -0.83460937 13.9296875 -1.16796875 C21.33983176 -4.14600786 29.50367972 -3.88161514 36.953125 -1.12109375 C41.46218879 1.34856524 44.39373298 5.18119893 46 10 C46.51630962 21.30661132 45.67700584 32.65444804 45 43.9375 C44.90325132 45.60349276 44.80689505 47.26950836 44.7109375 48.93554688 C44.47917825 52.95736895 44.23944544 56.97859935 44 61 C35.75 61 27.5 61 19 61 C19 47.54924875 19 47.54924875 19.25390625 42.82421875 C19.30353516 41.81166016 19.35316406 40.79910156 19.40429688 39.75585938 C19.51078044 37.6906041 19.62021024 35.62549885 19.73242188 33.56054688 C19.98994734 28.2005836 20.00495651 23.27788273 19 18 C16.03 18 13.06 18 10 18 C6.38459985 26.62743433 6.22930111 35.35377056 5.8125 44.5625 C5.73096916 46.15956441 5.6482964 47.75657095 5.56445312 49.35351562 C5.36100217 53.23519861 5.18105274 57.11695132 5 61 C-3.25 61 -11.5 61 -20 61 C-20 48.67612688 -20 48.67612688 -19.74609375 43.1953125 C-19.69646484 42.03515625 -19.64683594 40.875 -19.59570312 39.6796875 C-19.48918554 37.28632945 -19.37975466 34.89309949 -19.26757812 32.5 C-19.21923828 31.34757812 -19.17089844 30.19515625 -19.12109375 29.0078125 C-19.0739624 27.97285645 -19.02683105 26.93790039 -18.97827148 25.87158203 C-18.99922387 23.10257146 -19.35810643 20.68675222 -20 18 C-23.45013471 17.68635139 -25.3549145 17.55202396 -28.25 19.5625 C-31.90376208 24.65166861 -32.28967039 30.58056615 -32.6328125 36.68359375 C-32.67437469 37.38396255 -32.71593689 38.08433136 -32.75875854 38.80592346 C-32.88823388 41.01609804 -33.00680102 43.22669668 -33.125 45.4375 C-33.21151541 46.9473073 -33.29874831 48.45707366 -33.38671875 49.96679688 C-33.60077407 53.64410568 -33.80002797 57.32179102 -34 61 C-42.25 61 -50.5 61 -59 61 C-59.1378307 47.82855333 -58.59353941 34.71895822 -58 21.5625 C-57.9033464 19.36654962 -57.80699004 17.17058613 -57.7109375 14.97460938 C-57.47792848 9.64954989 -57.23883827 4.32481382 -57 -1 C-49.08 -1 -41.16 -1 -33 -1 C-32.67 0.65 -32.34 2.3 -32 4 C-31.34 3.401875 -30.68 2.80375 -30 2.1875 C-20.8965242 -4.4504511 -10.12353724 -4.8865139 0 0 Z " fill="#FEFEFE" transform="translate(613,91)"/>
<path d="M0 0 C2.21670867 1.53253933 4.03582823 3.13655498 6 5 C6.42410156 4.59007813 6.84820312 4.18015625 7.28515625 3.7578125 C13.4362082 -1.89304402 19.1455183 -3.44331008 27.44140625 -3.25390625 C33.82170985 -2.62074635 39.41278474 -0.58721526 44 4 C45.730684 6.88776553 46.25556953 9.01656041 46.265625 12.3671875 C46.26949219 13.23915771 46.27335937 14.11112793 46.27734375 15.00952148 C46.26832031 15.95512939 46.25929688 16.9007373 46.25 17.875 C46.24613281 18.85992432 46.24226563 19.84484863 46.23828125 20.85961914 C46.08948704 34.26659719 45.01610063 47.63646223 44 61 C35.75 61 27.5 61 19 61 C19.165 57.926875 19.33 54.85375 19.5 51.6875 C19.8645594 44.25131018 20.1293171 36.82022954 20.1875 29.375 C20.20039063 28.57666748 20.21328125 27.77833496 20.2265625 26.95581055 C20.23327387 23.09887189 20.19063334 21.28595002 18 18 C15.04253508 17.41654524 15.04253508 17.41654524 12 18 C7.91980062 21.49731375 7.21734584 27.55251623 6.76220703 32.67773438 C6.61677942 35.61849194 6.51575891 38.5567014 6.4375 41.5 C6.3768547 43.48968206 6.3131105 45.47927235 6.24609375 47.46875 C6.21020142 48.77489258 6.21020142 48.77489258 6.17358398 50.10742188 C5.95482818 53.75273653 5.45295904 57.37632767 5 61 C-3.25 61 -11.5 61 -20 61 C-19.835 57.74125 -19.67 54.4825 -19.5 51.125 C-19.15402554 43.68905619 -18.8743929 36.2566682 -18.8125 28.8125 C-18.79960937 28.06564941 -18.78671875 27.31879883 -18.7734375 26.54931641 C-18.76644653 22.80477955 -18.86713201 21.19930199 -21 18 C-24.41136476 17.9384058 -24.41136476 17.9384058 -28 19 C-33.16914719 27.4429404 -32.25386682 38.41719286 -32.5625 48 C-32.60568359 49.25167969 -32.64886719 50.50335938 -32.69335938 51.79296875 C-32.79877967 54.86187069 -32.89982871 57.93092225 -33 61 C-41.58 61 -50.16 61 -59 61 C-58.19436205 40.32195918 -57.11313984 19.66333364 -56 -1 C-48.08 -1 -40.16 -1 -32 -1 C-31.67 0.32 -31.34 1.64 -31 3 C-30.154375 2.38125 -29.30875 1.7625 -28.4375 1.125 C-19.71191786 -4.62409852 -9.23063574 -4.42517369 0 0 Z " fill="#FEFEFE" transform="translate(229,91)"/>
<path d="M0 0 C6.81598224 6.5520376 9.92866277 15.66053877 10.67578125 24.875 C10.82760874 35.654752 7.73969064 45.57851327 0.40234375 53.5859375 C-5.73884221 59.17362602 -12.00818391 60.2086532 -20.17578125 60.01171875 C-26.41112004 59.28321811 -32.07719774 57.12040984 -37.28515625 53.6484375 C-37.94515625 64.5384375 -38.60515625 75.4284375 -39.28515625 86.6484375 C-47.86515625 86.6484375 -56.44515625 86.6484375 -65.28515625 86.6484375 C-65.08019531 83.58949219 -64.87523437 80.53054687 -64.6640625 77.37890625 C-63.27752148 56.34996942 -61.97688537 35.3500272 -61.57641602 14.27612305 C-61.54990967 12.96426025 -61.52340332 11.65239746 -61.49609375 10.30078125 C-61.47853027 9.17663818 -61.4609668 8.05249512 -61.44287109 6.89428711 C-61.27455381 3.43023411 -60.82561912 0.07254352 -60.28515625 -3.3515625 C-16.17013301 -11.28148814 -16.17013301 -11.28148814 0 0 Z M-36.28515625 13.6484375 C-37.63683652 17.13478357 -37.48745869 20.82687635 -37.53515625 24.5234375 C-37.5609375 25.71710938 -37.58671875 26.91078125 -37.61328125 28.140625 C-37.19193155 32.6450539 -35.54531567 35.72503628 -33.09765625 39.4609375 C-30.04626812 41.46012283 -26.84756525 41.85759409 -23.28515625 41.6484375 C-19.24984528 39.82112687 -17.65391515 38.27532763 -15.41015625 34.4609375 C-13.69846601 28.66020947 -13.42075855 23.9823113 -15.53515625 18.2734375 C-17.79979891 14.87647351 -19.2638714 13.11132716 -23.33203125 12.1796875 C-28.06992641 11.48013251 -31.92255311 11.35807085 -36.28515625 13.6484375 Z " fill="#FEFEFE" transform="translate(732.28515625,94.3515625)"/>
<path d="M0 0 C5.0739959 6.08879508 6.55274114 12.0942124 6.47265625 19.828125 C5.77927808 26.62893008 3.21580848 33.87604199 -1.8125 38.625 C-10.57840229 45.03953365 -20.31847721 47.69185741 -31.1875 46.14453125 C-32.05375 45.97308594 -32.92 45.80164063 -33.8125 45.625 C-34.31940584 43.56418639 -34.81774619 41.50126474 -35.3125 39.4375 C-35.5909375 38.28894531 -35.869375 37.14039063 -36.15625 35.95703125 C-36.72745385 33.05681171 -36.94533779 30.56403615 -36.8125 27.625 C-35.81669922 27.67720703 -35.81669922 27.67720703 -34.80078125 27.73046875 C-30.87124895 27.85093616 -27.52850636 27.84418562 -23.75 26.6875 C-20.36344935 23.08246221 -20.8125 18.37022789 -20.8125 13.625 C-24.52679898 12.5088344 -28.20411508 12.3125805 -32.0625 12.0625 C-33.25456055 11.98523682 -34.44662109 11.90797363 -35.67480469 11.82836914 C-37.22796387 11.72770142 -37.22796387 11.72770142 -38.8125 11.625 C-38.80742432 12.63973389 -38.80234863 13.65446777 -38.79711914 14.69995117 C-38.76296111 24.68254111 -38.89977705 34.65072187 -39.18481445 44.62915039 C-39.25046158 46.95384555 -39.30996571 49.2786477 -39.36914062 51.60351562 C-39.59497359 59.97862581 -40.01991185 68.27951306 -40.8125 76.625 C-47.7425 76.625 -54.6725 76.625 -61.8125 76.625 C-62.3075 77.615 -62.3075 77.615 -62.8125 78.625 C-62.8125 77.965 -62.8125 77.305 -62.8125 76.625 C-63.8025 76.625 -64.7925 76.625 -65.8125 76.625 C-65.69308377 71.96584709 -65.5687764 67.30685796 -65.44018555 62.64794922 C-65.39721615 61.06725493 -65.35551955 59.48652545 -65.31518555 57.90576172 C-65.25654874 55.61675463 -65.19313841 53.32791865 -65.12890625 51.0390625 C-65.11219376 50.34696686 -65.09548126 49.65487122 -65.07826233 48.94180298 C-64.96757972 45.16853491 -64.71292349 41.44756572 -64.3125 37.69335938 C-63.80023529 32.83116908 -63.59798104 28.00329537 -63.49609375 23.1171875 C-63.47531265 22.26569122 -63.45453156 21.41419495 -63.43312073 20.53689575 C-63.36854249 17.85800017 -63.30917417 15.17901983 -63.25 12.5 C-63.20672718 10.66665844 -63.16311035 8.83332497 -63.11914062 7 C-63.01295751 2.54175007 -62.91144159 -1.91658372 -62.8125 -6.375 C-57.81805417 -6.54525204 -52.82341262 -6.7054669 -47.82836914 -6.85717773 C-46.13622806 -6.90989191 -44.4441638 -6.96514622 -42.75219727 -7.02319336 C-9.65406299 -8.15231986 -9.65406299 -8.15231986 0 0 Z " fill="#FEFEFE" transform="translate(65.8125,75.375)"/>
<path d="M0 0 C1.54950268 1.54950268 1.21655193 3.09990594 1.31640625 5.25390625 C1.35830078 6.10791016 1.40019531 6.96191406 1.44335938 7.84179688 C1.48267578 8.73962891 1.52199219 9.63746094 1.5625 10.5625 C1.60568359 11.46419922 1.64886719 12.36589844 1.69335938 13.29492188 C1.79978142 15.52978485 1.90179988 17.76476308 2 20 C-1.28867854 21.09622618 -2.13398132 20.88621405 -5.375 20.0625 C-16.47753035 17.69612127 -26.26038387 18.37097593 -36.25 23.75 C-41.69860116 28.2079464 -44.63131693 33.0321589 -46 40 C-46.5322323 45.7481088 -45.66338554 50.87810474 -43 56 C-37.12655605 62.66791946 -30.88973189 64.67936184 -22.1875 65.25 C-14.72284808 65.19851964 -7.30329254 63.40867181 0 62 C-0.30926968 64.75039833 -0.6222884 67.50028178 -0.9375 70.25 C-1.02451172 71.02730469 -1.11152344 71.80460937 -1.20117188 72.60546875 C-1.28818359 73.35957031 -1.37519531 74.11367187 -1.46484375 74.890625 C-1.543396 75.58188477 -1.62194824 76.27314453 -1.70288086 76.98535156 C-2.00544983 79.03695313 -2.46412384 80.99782535 -3 83 C-19.32284331 87.28140153 -38.84365848 86.8917238 -54.18359375 79.45703125 C-63.82833822 73.73823432 -69.73979384 66.74465792 -73 56 C-76.12818804 43.25784739 -74.03398049 30.14413534 -67.296875 18.98828125 C-60.39863838 8.41237029 -49.13546161 1.99588737 -36.87109375 -0.68359375 C-24.38524841 -2.82107613 -12.42684995 -2.07114166 0 0 Z " fill="#FEFEFE" transform="translate(463,69)"/>
<path d="M0 0 C8.58 0 17.16 0 26 0 C25.835 2.35125 25.67 4.7025 25.5 7.125 C25.05599291 14.37131171 24.83149608 21.61585637 24.75 28.875 C24.72873047 29.83164551 24.70746094 30.78829102 24.68554688 31.77392578 C24.68103516 32.67095215 24.67652344 33.56797852 24.671875 34.4921875 C24.6625293 35.28995605 24.65318359 36.08772461 24.64355469 36.90966797 C25.0948189 39.55605438 25.84879864 40.42844511 28 42 C32.08180263 42.37107297 35.73143964 42.68488887 39 40 C43.77625121 31.33198854 43.2069532 21.09707512 43.5625 11.4375 C43.706875 7.663125 43.85125 3.88875 44 0 C52.58 0 61.16 0 70 0 C69.5359375 6.373125 69.5359375 6.373125 69.0625 12.875 C68.26341278 24.11609217 67.67459336 35.34293179 67.34204102 46.60888672 C67.29454712 48.11346436 67.29454712 48.11346436 67.24609375 49.6484375 C67.21020142 50.95047119 67.21020142 50.95047119 67.17358398 52.27880859 C66.9658015 55.5361132 66.46158871 58.76887903 66 62 C58.08 62 50.16 62 42 62 C41.67 60.35 41.34 58.7 41 57 C40.360625 57.598125 39.72125 58.19625 39.0625 58.8125 C31.41138512 64.27758206 23.20936529 64.84991614 14 64 C8.44530522 62.84983046 4.54819063 60.46058251 1 56 C-2.48777489 49.75828465 -2.21545136 44.58237757 -1.75 37.5625 C-1.63122268 35.34636957 -1.51274146 33.13022325 -1.39453125 30.9140625 C-1.32830566 29.78000977 -1.26208008 28.64595703 -1.19384766 27.47753906 C-0.87737498 21.80016268 -0.6631972 16.11906133 -0.4375 10.4375 C-0.293125 6.993125 -0.14875 3.54875 0 0 Z " fill="#FEFEFE" transform="translate(753,90)"/>
<path d="M0 0 C6.66662782 5.7373403 10.54540835 11.48825715 11.21484375 20.4140625 C11.59590643 31.56377181 10.21653715 39.90639057 2.9453125 48.65625 C-0.33224126 51.92743958 -3.82334854 53.87566627 -8.06640625 55.6640625 C-8.81535156 55.98246094 -9.56429687 56.30085938 -10.3359375 56.62890625 C-22.19711347 60.89735598 -35.42473527 59.58295981 -46.75390625 54.4453125 C-54.1316673 50.49294051 -58.22169362 45.62850971 -61.12890625 37.8046875 C-63.84289101 28.45113289 -63.77133426 19.5891855 -59.33984375 10.7890625 C-53.60090626 1.21243061 -45.23157637 -3.95600045 -34.44140625 -6.7109375 C-22.59306768 -8.77059492 -9.82362816 -7.31815236 0 0 Z M-35.06640625 16.6640625 C-37.77616093 22.15806683 -37.83683951 27.66279286 -37.06640625 33.6640625 C-35.80273523 36.79091359 -34.87412758 37.49977731 -32.06640625 39.6640625 C-27.98488447 41.12234749 -24.93569701 40.93153658 -20.81640625 39.6640625 C-17.35706061 37.14817476 -15.35750861 34.70513996 -14.06640625 30.6640625 C-13.43367361 25.70173235 -13.37851448 21.31500274 -15.31640625 16.6640625 C-18.52382356 12.99844271 -19.93613667 11.80990374 -24.94140625 11.1640625 C-29.76609215 11.35308937 -31.81702331 13.18258078 -35.06640625 16.6640625 Z " fill="#FEFEFE" transform="translate(534.06640625,95.3359375)"/>
<path d="M0 0 C6.32649163 4.52778322 9.89141798 9.88596777 11.390625 17.5234375 C11.48203421 19.37581826 11.52067161 21.23130959 11.515625 23.0859375 C11.51949219 24.51099609 11.51949219 24.51099609 11.5234375 25.96484375 C11.390625 28.5234375 11.390625 28.5234375 10.390625 31.5234375 C-3.469375 31.5234375 -17.329375 31.5234375 -31.609375 31.5234375 C-30.47044081 38.9946502 -30.47044081 38.9946502 -27.671875 41.4609375 C-17.7344989 46.58019185 -4.86233446 43.14121438 5.390625 40.5234375 C4.98018015 47.10135623 4.52453903 53.26395636 2.390625 59.5234375 C-11.79098254 63.16641925 -29.79924332 63.84560356 -43.15625 57.26953125 C-49.79217365 53.29014566 -52.97824344 48.40708407 -55.921875 41.3984375 C-58.07989165 29.23507092 -56.9542009 17.45678957 -49.859375 7.0859375 C-38.42955429 -6.65264998 -15.08927735 -8.53854317 0 0 Z M-28.609375 13.5234375 C-29.599375 16.1634375 -30.589375 18.8034375 -31.609375 21.5234375 C-25.339375 21.5234375 -19.069375 21.5234375 -12.609375 21.5234375 C-12.19187483 16.00796282 -12.19187483 16.00796282 -13.671875 13.2109375 C-18.39024144 9.10139253 -23.88691882 9.98159537 -28.609375 13.5234375 Z " fill="#FEFEFE" transform="translate(340.609375,92.4765625)"/>
<path d="M0 0 C4.74007444 3.95993719 8.50326097 9.14270567 9.5625 15.3125 C9.6555391 17.70688869 9.6924662 20.10380952 9.6875 22.5 C9.69136719 24.37751953 9.69136719 24.37751953 9.6953125 26.29296875 C9.5625 29.3125 9.5625 29.3125 8.5625 30.3125 C5.45998799 30.40124135 2.3798188 30.42768455 -0.72265625 30.41015625 C-1.65347519 30.4087413 -2.58429413 30.40732635 -3.5433197 30.40586853 C-6.52891191 30.40025172 -9.51443029 30.3876964 -12.5 30.375 C-14.51887913 30.36998716 -16.53775943 30.36542388 -18.55664062 30.36132812 C-23.51695572 30.35027683 -28.47721532 30.33300095 -33.4375 30.3125 C-33.00643902 31.77353126 -32.56085102 33.23028204 -32.10913086 34.68505859 C-31.86255234 35.49671478 -31.61597382 36.30837097 -31.36192322 37.1446228 C-30.52925656 39.60270985 -30.52925656 39.60270985 -27.69140625 41.3515625 C-17.39322467 44.3928022 -6.52269998 42.16968988 3.5625 39.3125 C5.18891858 42.56533716 4.04180183 45.85589356 3.4375 49.3125 C3.33179688 50.04984375 3.22609375 50.7871875 3.1171875 51.546875 C2.7421875 53.6875 2.7421875 53.6875 1.5625 57.3125 C-7.07666186 63.01001176 -24.2962892 61.17979457 -34.19921875 59.78125 C-43.51442119 57.63068884 -50.01945335 53.220659 -55.4375 45.3125 C-59.75320222 36.28599607 -59.63270018 26.34351479 -56.6875 16.9375 C-53.52358665 8.48941193 -48.53829043 1.10869562 -40.09375 -2.76171875 C-27.30847113 -7.13002236 -11.58469752 -7.97670542 0 0 Z M-29.4375 12.3125 C-32.25787114 15.32737949 -32.4375 15.97972334 -32.4375 20.3125 C-26.4975 20.3125 -20.5575 20.3125 -14.4375 20.3125 C-14.01999983 14.79702532 -14.01999983 14.79702532 -15.5 12 C-20.06297643 8.02579472 -24.96757713 8.7117288 -29.4375 12.3125 Z " fill="#FEFEFE" transform="translate(941.4375,93.6875)"/>
<path d="M0 0 C0 5.28 0 10.56 0 16 C4.29 16.33 8.58 16.66 13 17 C13 22.61 13 28.22 13 34 C8.38 34 3.76 34 -1 34 C-1 42.58 -1 51.16 -1 60 C3.62 60 8.24 60 13 60 C10.99107143 74.46428571 10.99107143 74.46428571 10 78 C-0.24306195 80.87524546 -12.37635511 82.26576796 -22 77 C-25.8251887 72.97864777 -27.12610477 70.43952891 -27.1328125 64.9765625 C-27.13474609 63.96013672 -27.13667969 62.94371094 -27.13867188 61.89648438 C-27.13416016 60.81689453 -27.12964844 59.73730469 -27.125 58.625 C-27.12306641 57.53767578 -27.12113281 56.45035156 -27.11914062 55.33007812 C-27.0805467 48.1730495 -26.87318465 41.11021787 -26 34 C-28.97 34 -31.94 34 -35 34 C-35.02699725 31.72923158 -35.04639453 29.45837179 -35.0625 27.1875 C-35.07990234 25.29064453 -35.07990234 25.29064453 -35.09765625 23.35546875 C-35 20 -35 20 -34 17 C-30.7 17 -27.4 17 -24 17 C-24.01160156 16.22914062 -24.02320313 15.45828125 -24.03515625 14.6640625 C-24.04869141 13.15972656 -24.04869141 13.15972656 -24.0625 11.625 C-24.07410156 10.62726563 -24.08570313 9.62953125 -24.09765625 8.6015625 C-24 6 -24 6 -23 4 C-21.31347656 3.40576172 -21.31347656 3.40576172 -19.140625 2.9296875 C-18.35429688 2.75566406 -17.56796875 2.58164063 -16.7578125 2.40234375 C-15.93023438 2.22832031 -15.10265625 2.05429688 -14.25 1.875 C-13.43789063 1.69324219 -12.62578125 1.51148437 -11.7890625 1.32421875 C-7.65327782 0.4283566 -4.30628196 0 0 0 Z " fill="#FEFEFE" transform="translate(865,74)"/>
<path d="M0 0 C0.495 10.395 0.495 10.395 1 21 C-0.69125 20.938125 -2.3825 20.87625 -4.125 20.8125 C-8.87260148 20.84297241 -12.13808204 20.98582013 -16 24 C-21.96353978 32.19505789 -21.17037791 42.85912732 -21.5625 52.5625 C-21.706875 56.006875 -21.85125 59.45125 -22 63 C-30.25 63 -38.5 63 -47 63 C-46.855625 60.009375 -46.71125 57.01875 -46.5625 53.9375 C-45.75732836 36.30181753 -45.41955462 18.64807409 -45 1 C-36.75 1 -28.5 1 -20 1 C-20 2.32 -20 3.64 -20 5 C-19.29875 4.38125 -18.5975 3.7625 -17.875 3.125 C-12.84918394 -0.58973361 -5.98072117 -2.99036059 0 0 Z " fill="#FEFEFE" transform="translate(125,89)"/>
<path d="M0 0 C0.495 10.395 0.495 10.395 1 21 C-0.69125 20.938125 -2.3825 20.87625 -4.125 20.8125 C-8.85210029 20.82465193 -12.06663223 21.14830837 -16 24 C-23.11815408 33.87074075 -21.48764801 51.30129621 -22 63 C-30.25 63 -38.5 63 -47 63 C-46.7834375 58.92591797 -46.7834375 58.92591797 -46.5625 54.76953125 C-45.62653735 36.82894531 -44.71700572 18.97013707 -45 1 C-36.75 1 -28.5 1 -20 1 C-20 2.65 -20 4.3 -20 6 C-19.113125 5.21625 -18.22625 4.4325 -17.3125 3.625 C-12.39052528 -0.43447915 -6.22645222 -3.11322611 0 0 Z " fill="#FEFEFE" transform="translate(1005,89)"/>
<path d="M0 0 C19.47 0 38.94 0 59 0 C59 9.57 59 19.14 59 29 C39.53 29 20.06 29 0 29 C0 19.43 0 9.86 0 0 Z " fill="#F87A02" transform="translate(947,55)"/>
<path d="M0 0 C8.58 0 17.16 0 26 0 C25.855625 2.990625 25.71125 5.98125 25.5625 9.0625 C24.75732836 26.69818247 24.41955462 44.35192591 24 62 C15.09 62 6.18 62 -3 62 C-2.86722656 59.70289063 -2.73445312 57.40578125 -2.59765625 55.0390625 C-1.54695166 36.69561886 -0.64058405 18.36340941 0 0 Z " fill="#FEFEFE" transform="translate(134,90)"/>
<path d="M0 0 C3.1875 1.5 3.1875 1.5 5 3 C5.5465625 2.51144531 6.093125 2.02289063 6.65625 1.51953125 C9.50400655 -0.32676425 11.1355536 -0.3725794 14.5 -0.3125 C15.90765625 -0.30669922 15.90765625 -0.30669922 17.34375 -0.30078125 C20.1392467 0.01576764 21.72488661 0.34854708 24 2 C25.90365366 5.78931279 26.20234003 8.71685641 26.01171875 12.921875 C25.94114258 14.58283203 25.94114258 14.58283203 25.86914062 16.27734375 C25.80919922 17.42332031 25.74925781 18.56929687 25.6875 19.75 C25.63916016 20.91144531 25.59082031 22.07289063 25.54101562 23.26953125 C25.14434683 31.85565317 25.14434683 31.85565317 24 33 C19.66469082 33.14393457 15.33842269 33.04212061 11 33 C11 26.07 11 19.14 11 12 C10.34 11.67 9.68 11.34 9 11 C8.34 11.33 7.68 11.66 7 12 C5.48416975 16.54749075 5.60443651 21.25777247 5.39453125 26.015625 C5.10139297 31.89860703 5.10139297 31.89860703 4 33 C-0.33530918 33.14393457 -4.66157731 33.04212061 -9 33 C-9 26.07 -9 19.14 -9 12 C-9.66 11.67 -10.32 11.34 -11 11 C-11.99 11.495 -11.99 11.495 -13 12 C-13.8541603 14.5624809 -14.25291571 16.5774077 -14.53515625 19.23046875 C-14.66567383 20.43413086 -14.66567383 20.43413086 -14.79882812 21.66210938 C-14.9293457 22.91217773 -14.9293457 22.91217773 -15.0625 24.1875 C-15.15337891 25.03248047 -15.24425781 25.87746094 -15.33789062 26.74804688 C-15.5615612 28.83171485 -15.78117151 30.91581795 -16 33 C-20.29 33 -24.58 33 -29 33 C-28.67 22.44 -28.34 11.88 -28 1 C-23 1 -18 1 -13 1 C-9.08729537 -0.95635231 -4.2758022 -0.3696659 0 0 Z " fill="#FEFEFE" transform="translate(138,203)"/>
<path d="M0 0 C0.95648438 -0.02578125 1.91296875 -0.0515625 2.8984375 -0.078125 C6.00392147 0.29560086 7.33036066 1.18373709 9.625 3.25 C10.223125 2.755 10.82125 2.26 11.4375 1.75 C16.00441517 -0.39913655 20.67576707 -0.83086696 25.625 0.25 C28.4453125 2.30859375 28.4453125 2.30859375 30.625 5.25 C31.1484375 8.81640625 31.1484375 8.81640625 31 12.8125 C30.98001953 13.51052734 30.96003906 14.20855469 30.93945312 14.92773438 C30.73251635 21.05194448 30.23461135 27.15388646 29.625 33.25 C25.335 33.25 21.045 33.25 16.625 33.25 C16.625 25.99 16.625 18.73 16.625 11.25 C15.305 11.58 13.985 11.91 12.625 12.25 C10.1829208 19.08782175 10.00477242 26.04431807 9.625 33.25 C5.335 33.25 1.045 33.25 -3.375 33.25 C-3.375 25.99 -3.375 18.73 -3.375 11.25 C-4.695 11.58 -6.015 11.91 -7.375 12.25 C-9.47687701 16.71140347 -9.77391435 21.26415859 -10 26.125 C-10.05800781 27.15753906 -10.05800781 27.15753906 -10.1171875 28.2109375 C-10.21048166 29.89023246 -10.29378238 31.57007767 -10.375 33.25 C-14.665 33.25 -18.955 33.25 -23.375 33.25 C-23.48447633 22.52132003 -23.33788008 11.9448466 -22.375 1.25 C-20.78558594 1.26740234 -20.78558594 1.26740234 -19.1640625 1.28515625 C-17.77604342 1.29453476 -16.38802245 1.30363489 -15 1.3125 C-13.95199219 1.32506836 -13.95199219 1.32506836 -12.8828125 1.33789062 C-8.31600926 1.35984641 -4.55396568 0.07325414 0 0 Z " fill="#FEFEFE" transform="translate(254.375,202.75)"/>
<path d="M0 0 C1.65 0 3.3 0 5 0 C5.66 1.32 6.32 2.64 7 4 C5.68 4 4.36 4 3 4 C3 4.99 3 5.98 3 7 C2.01 7 1.02 7 0 7 C0.66 8.65 1.32 10.3 2 12 C3.2375 11.979375 4.475 11.95875 5.75 11.9375 C8.6640825 11.93233319 11.20953327 12.06984442 14 13 C13.979375 14.216875 13.95875 15.43375 13.9375 16.6875 C13.93175884 19.91977322 14.21233685 22.84934741 15 26 C16.0725 25.896875 17.145 25.79375 18.25 25.6875 C22 26 22 26 24.4375 28.125 C26.28042686 31.51598543 26.63358675 33.19847951 26 37 C24.5625 39.875 24.5625 39.875 22 42 C18.8777264 42.64812539 16.12508309 42.62146539 13 42 C10.9375 40.5 10.9375 40.5 10 38 C9.77811333 35.27924679 9.8651428 32.74209632 10 30 C10 29.67 10 29.34 10 29 C9.401875 29.99 8.80375 30.98 8.1875 32 C6.2342045 34.41890664 5.34926753 34.94996448 2.21875 35.3984375 C-0.54205832 35.37709104 -3.2518818 35.25989209 -6 35 C-6.1546875 36.175625 -6.1546875 36.175625 -6.3125 37.375 C-7 40 -7 40 -10 42 C-16.33333333 42.33333333 -16.33333333 42.33333333 -19 41 C-19 40.34 -19 39.68 -19 39 C-19.66 39 -20.32 39 -21 39 C-23 36 -23 36 -23 32 C-23.99 32.495 -23.99 32.495 -25 33 C-27.55157655 33.0716735 -30.07472971 33.09308442 -32.625 33.0625 C-33.33140625 33.05798828 -34.0378125 33.05347656 -34.765625 33.04882812 C-36.51045275 33.03703875 -38.255237 33.01910324 -40 33 C-40.042721 31.33388095 -40.04063832 29.66617115 -40 28 C-39 27 -39 27 -36.4375 26.9375 C-35.2309375 26.9684375 -35.2309375 26.9684375 -34 27 C-34 27.33 -34 27.66 -34 28 C-31.69 28.33 -29.38 28.66 -27 29 C-27 28.34 -27 27.68 -27 27 C-28.98 27 -30.96 27 -33 27 C-33 25.68 -33 24.36 -33 23 C-29.04 23 -25.08 23 -21 23 C-21 22.34 -21 21.68 -21 21 C-26.28 21 -31.56 21 -37 21 C-37.33 19.68 -37.66 18.36 -38 17 C-36.68 16.34 -35.36 15.68 -34 15 C-34 13.35 -34 11.7 -34 10 C-35.32 9.67 -36.64 9.34 -38 9 C-37.67 7.68 -37.34 6.36 -37 5 C-32.71 5 -28.42 5 -24 5 C-24 6.32 -24 7.64 -24 9 C-26.64 9.33 -29.28 9.66 -32 10 C-26.42169984 10.12469099 -26.42169984 10.12469099 -21 9 C-20.67 7.68 -20.34 6.36 -20 5 C-16.04 5 -12.08 5 -8 5 C-8.144375 5.969375 -8.28875 6.93875 -8.4375 7.9375 C-9.06047442 12.28052169 -9.53507859 16.63765234 -10 21 C-12.31 21.33 -14.62 21.66 -17 22 C-17.33 23.32 -17.66 24.64 -18 26 C-17.34 25.01 -16.68 24.02 -16 23 C-13.46875 22.671875 -13.46875 22.671875 -10.5 22.75 C-9.03046875 22.77320313 -9.03046875 22.77320313 -7.53125 22.796875 C-5 23 -5 23 -3 24 C-3 25.98 -3 27.96 -3 30 C-7.95 30.33 -12.9 30.66 -18 31 C-17.34 32.98 -16.68 34.96 -16 37 C-14.02 37.33 -12.04 37.66 -10 38 C-10 37.01 -10 36.02 -10 35 C-11.65 35 -13.3 35 -15 35 C-15 34.01 -15 33.02 -15 32 C-13.02966797 32.01353516 -13.02966797 32.01353516 -11.01953125 32.02734375 C-9.28382402 31.99919715 -7.54814689 31.96914929 -5.8125 31.9375 C-4.94818359 31.94845703 -4.08386719 31.95941406 -3.19335938 31.97070312 C1.64445585 31.87180318 1.64445585 31.87180318 5.7355957 29.55297852 C7.83594042 26.82743894 8.91972731 24.78992979 9.26953125 21.34765625 C9.11871094 20.59355469 8.96789062 19.83945313 8.8125 19.0625 C8.67457031 18.29035156 8.53664063 17.51820313 8.39453125 16.72265625 C8.26433594 16.15417969 8.13414062 15.58570313 8 15 C5.69 15 3.38 15 1 15 C1 14.34 1 13.68 1 13 C0.01 13 -0.98 13 -2 13 C-2 14.65 -2 16.3 -2 18 C0.31 18.66 2.62 19.32 5 20 C4.67 22.97 4.34 25.94 4 29 C3.01 29.33 2.02 29.66 1 30 C0.505 26.535 0.505 26.535 0 23 C-2.64 22.34 -5.28 21.68 -8 21 C-8.34615998 15.34605369 -7.43425238 11.96993194 -5 7 C-3.68 7 -2.36 7 -1 7 C-0.67 4.69 -0.34 2.38 0 0 Z " fill="#F18E26" transform="translate(634,194)"/>
<path d="M0 0 C0.8765625 -0.01611328 1.753125 -0.03222656 2.65625 -0.04882812 C7.84537267 -0.0527356 11.54800519 0.35140578 16 3.3125 C19.71051567 8.32671037 21.27253441 13.04420858 21 19.3125 C19.90338747 24.83151714 17.95887689 29.2259174 14 33.3125 C11.426671 34.5991645 9.49776962 34.48074551 6.625 34.5 C5.66851563 34.51417969 4.71203125 34.52835938 3.7265625 34.54296875 C0.96989983 34.30995572 -0.64947395 33.72170164 -3 32.3125 C-4.4807848 35.2740696 -4.35314037 38.14756295 -4.5625 41.4375 C-4.64628906 42.71882813 -4.73007813 44.00015625 -4.81640625 45.3203125 C-4.87699219 46.30773437 -4.93757812 47.29515625 -5 48.3125 C-9.29 48.3125 -13.58 48.3125 -18 48.3125 C-18.12729712 38.35150008 -17.62352552 28.49706102 -17 18.5625 C-16.90331408 16.97918689 -16.80695771 15.39585362 -16.7109375 13.8125 C-16.47774888 9.97892414 -16.2401305 6.14564703 -16 2.3125 C-10.44767933 0.2970758 -5.84105653 -0.02147447 0 0 Z M-3 10.3125 C-4.60646029 13.52542058 -4.62441428 16.8383652 -4 20.3125 C-1.66663334 23.31583267 -1.66663334 23.31583267 1 25.3125 C3.50358872 24.83042644 3.50358872 24.83042644 6 23.3125 C7.5557183 19.72758392 8.18728156 17.36595876 7.5 13.5 C4.81669862 9.58685216 1.37253973 8.85498676 -3 10.3125 Z " fill="#FEFEFE" transform="translate(19,202.6875)"/>
<path d="M0 0 C4.29 0 8.58 0 13 0 C13.1299667 9.26825032 12.61514233 18.4469475 12 27.6875 C11.90332319 29.17901558 11.80696682 30.67055197 11.7109375 32.16210938 C11.4776453 35.77498651 11.24004168 39.38756427 11 43 C7.04 43 3.08 43 -1 43 C-1 42.34 -1 41.68 -1 41 C-1.598125 41.495 -2.19625 41.99 -2.8125 42.5 C-7.52892844 44.71949574 -11.87365436 44.66243527 -17 44 C-21.18365004 42.13229909 -22.59272556 40.70594237 -24.875 36.75 C-26.78716273 30.37612422 -26.64082993 25.00700131 -24.12109375 18.89453125 C-21.55807575 14.56329875 -17.72848004 11.57616001 -13 10 C-10.77181559 9.93062938 -8.54165476 9.91542916 -6.3125 9.9375 C-4.54326172 9.95103516 -4.54326172 9.95103516 -2.73828125 9.96484375 C-1.83464844 9.97644531 -0.93101562 9.98804688 0 10 C0 6.7 0 3.4 0 0 Z M-11 22 C-12.83812558 24.95698463 -13.00579075 26.7046716 -12.9375 30.1875 C-12.28211628 33.22618858 -12.28211628 33.22618858 -9.4375 34.375 C-8.633125 34.58125 -7.82875 34.7875 -7 35 C-3.08396696 32.20579508 -3.08396696 32.20579508 -1 28 C-0.93259135 26.43881572 -0.91485544 24.8749748 -0.9375 23.3125 C-0.94652344 22.50425781 -0.95554687 21.69601563 -0.96484375 20.86328125 C-0.97644531 20.24839844 -0.98804688 19.63351563 -1 19 C-5.41789639 19 -7.30315379 19.66937956 -11 22 Z " fill="#FEFEFE" transform="translate(331,193)"/>
<path d="M0 0 C4.62 0 9.24 0 14 0 C16.475 8.415 16.475 8.415 19 17 C20.93257638 11.78053027 20.93257638 11.78053027 22.85913086 6.55883789 C24.88888889 1.11111111 24.88888889 1.11111111 26 0 C30.33315059 -0.1438629 34.66512361 -0.04208618 39 0 C35.69719635 8.83388142 32.16534609 17.53089034 28.34326172 26.15112305 C27.77513054 27.43887608 27.21306816 28.72932161 26.65673828 30.0222168 C25.83629936 31.92839054 24.9984301 33.82600514 24.15625 35.72265625 C23.66962891 36.83390869 23.18300781 37.94516113 22.68164062 39.09008789 C20.49628924 42.87162145 17.8870178 45.0564911 14 47 C11.62597499 47.07116382 9.24999323 47.08409085 6.875 47.0625 C5.59367188 47.05347656 4.31234375 47.04445312 2.9921875 47.03515625 C1.51105469 47.01775391 1.51105469 47.01775391 0 47 C-0.66 43.7 -1.32 40.4 -2 37 C-0.7625 37.061875 0.475 37.12375 1.75 37.1875 C4.78211302 37.20362826 5.82248296 37.10651023 8.5 35.5 C8.995 35.005 9.49 34.51 10 34 C9.42834741 29.23974086 8.4748238 24.94701652 6.93359375 20.41015625 C6.53076172 19.21455078 6.12792969 18.01894531 5.71289062 16.78710938 C5.29201172 15.55798828 4.87113281 14.32886719 4.4375 13.0625 C4.00790487 11.79380883 3.57886341 10.52493004 3.15039062 9.25585938 C2.10569603 6.16872815 1.0535782 3.08411073 0 0 Z " fill="#FEFEFE" transform="translate(527,204)"/>
<path d="M0 0 C4.29 0 8.58 0 13 0 C13 6.6 13 13.2 13 20 C14.32 20.66 15.64 21.32 17 22 C20.24849977 20.27773504 20.24849977 20.27773504 21 17 C21.20831457 15.66709486 21.38396231 14.32886749 21.53515625 12.98828125 C21.62216797 12.23095703 21.70917969 11.47363281 21.79882812 10.69335938 C21.88583984 9.90767578 21.97285156 9.12199219 22.0625 8.3125 C22.15337891 7.51521484 22.24425781 6.71792969 22.33789062 5.89648438 C22.56147277 3.931315 22.78111684 1.9656983 23 0 C27.29 0 31.58 0 36 0 C35.85766209 3.45850838 35.71121743 6.91676473 35.5625 10.375 C35.52318359 11.34050781 35.48386719 12.30601562 35.44335938 13.30078125 C35.17003564 19.56620227 34.67819603 25.76515586 34 32 C30.04 32 26.08 32 22 32 C21.67 31.34 21.34 30.68 21 30 C20.46246094 30.48726562 19.92492187 30.97453125 19.37109375 31.4765625 C16.40688138 33.38108115 14.56246464 33.40148145 11.0625 33.375 C10.04285156 33.38273437 9.02320313 33.39046875 7.97265625 33.3984375 C4.61349726 32.94819543 2.71756451 31.99320474 0 30 C-1.57099814 26.85800372 -1.14572777 23.50886122 -1.125 20.0625 C-1.12306641 19.30138916 -1.12113281 18.54027832 -1.11914062 17.75610352 C-1.07375833 11.79022318 -0.66830646 5.93121979 0 0 Z " fill="#FEFEFE" transform="translate(190,204)"/>
<path d="M0 0 C1.7634375 -0.01160156 1.7634375 -0.01160156 3.5625 -0.0234375 C8.19921175 0.51399954 11.65305005 1.8887104 14.8125 5.375 C17.58727409 10.04830373 17 12.36050806 17 18.375 C9.74 18.375 2.48 18.375 -5 18.375 C-4.67 20.355 -4.34 22.335 -4 24.375 C2.23182639 25.41363773 7.74692761 25.20788874 14 24.375 C13.85950482 25.85468324 13.71245174 27.33374516 13.5625 28.8125 C13.48128906 29.63621094 13.40007812 30.45992187 13.31640625 31.30859375 C13 33.375 13 33.375 12 34.375 C8.80126453 34.68297918 5.58672623 34.65352546 2.375 34.6875 C1.48425781 34.71650391 0.59351563 34.74550781 -0.32421875 34.77539062 C-6.43909073 34.83392769 -10.0760414 34.09012044 -15 30.375 C-18.91886513 25.5968755 -18.55116708 20.78129044 -18.4140625 14.8359375 C-17.85027597 10.12353308 -16.51729354 6.62236171 -13 3.375 C-8.55726417 0.6473374 -5.18497895 -0.0341117 0 0 Z M-1 7.375 C-3.31278117 9.10437829 -3.31278117 9.10437829 -5 11.375 C-5 12.035 -5 12.695 -5 13.375 C-2.03 13.375 0.94 13.375 4 13.375 C3.67 11.725 3.34 10.075 3 8.375 C1.21858253 7.51141377 1.21858253 7.51141377 -1 7.375 Z " fill="#FEFEFE" transform="translate(366,202.625)"/>
<path d="M0 0 C1.30453125 -0.03738281 2.6090625 -0.07476562 3.953125 -0.11328125 C9.17285329 0.47205865 12.24077795 2.55174095 15.625 6.5 C16.75 9.3125 16.75 9.3125 16.75 18.3125 C9.49 18.3125 2.23 18.3125 -5.25 18.3125 C-3.82220818 23.09351945 -3.82220818 23.09351945 -1.546875 24.6484375 C1.60846024 25.56069429 4.24181994 25.26331801 7.5 24.9375 C9.25570313 24.77121094 9.25570313 24.77121094 11.046875 24.6015625 C11.93890625 24.50617188 12.8309375 24.41078125 13.75 24.3125 C13.60950482 25.79218324 13.46245174 27.27124516 13.3125 28.75 C13.23128906 29.57371094 13.15007812 30.39742187 13.06640625 31.24609375 C12.75 33.3125 12.75 33.3125 11.75 34.3125 C8.53028604 34.61984597 5.29507284 34.59097292 2.0625 34.625 C1.16337891 34.65400391 0.26425781 34.68300781 -0.66210938 34.71289062 C-6.40092171 34.76762618 -9.71692529 34.18081804 -14.25 30.3125 C-17.89517039 26.47547854 -18.5412735 23.44950065 -18.6875 18.3125 C-18.47782722 12.84071674 -17.84645231 8.84663745 -13.78515625 4.8828125 C-8.97123471 0.71623983 -6.30748167 0.11749231 0 0 Z M-3.25 8.3125 C-4.46869929 10.81697516 -4.46869929 10.81697516 -5.25 13.3125 C-1.95 13.3125 1.35 13.3125 4.75 13.3125 C3.96869929 10.81697516 3.96869929 10.81697516 2.75 8.3125 C-0.25 6.97916667 -0.25 6.97916667 -3.25 8.3125 Z " fill="#FEFEFE" transform="translate(481.25,202.6875)"/>
<path d="M0 0 C1.21429688 -0.02578125 2.42859375 -0.0515625 3.6796875 -0.078125 C8.45141899 0.37632562 10.93102635 2.18510458 14.4375 5.3125 C16.125 8.25 16.125 8.25 16.125 18.25 C8.865 18.25 1.605 18.25 -5.875 18.25 C-4.885 20.23 -3.895 22.21 -2.875 24.25 C2.71735201 25.96194449 8.41211874 24.99715751 14.125 24.25 C13.81701674 25.73011371 13.503482 27.20907325 13.1875 28.6875 C12.92646484 29.92306641 12.92646484 29.92306641 12.66015625 31.18359375 C12.125 33.25 12.125 33.25 11.125 34.25 C8.07146525 34.52917065 5.00227295 34.48185183 1.9375 34.5 C1.08607422 34.520625 0.23464844 34.54125 -0.64257812 34.5625 C-5.82229221 34.59454773 -9.40000152 34.15046198 -13.875 31.25 C-18.42520455 26.33085995 -19.23229754 22.39828928 -19.15625 15.88671875 C-18.57138497 10.40360907 -16.25856658 6.56607552 -12.3125 2.8125 C-8.18147732 0.16440854 -4.82163503 0.06116239 0 0 Z M-3.125 8.5 C-3.7025 9.0775 -4.28 9.655 -4.875 10.25 C-4.875 11.24 -4.875 12.23 -4.875 13.25 C-1.905 13.25 1.065 13.25 4.125 13.25 C3.795 11.6 3.465 9.95 3.125 8.25 C0.37535935 7.16978403 -0.47987717 7.03048732 -3.125 8.5 Z " fill="#FEFEFE" transform="translate(88.875,202.75)"/>
<path d="M0 0 C4.29 0 8.58 0 13 0 C15.08135307 5.29798964 16.71291613 10.45563871 18 16 C18.50660156 14.77023438 18.50660156 14.77023438 19.0234375 13.515625 C19.46945312 12.43796875 19.91546875 11.3603125 20.375 10.25 C20.81585938 9.18265625 21.25671875 8.1153125 21.7109375 7.015625 C22.72611757 4.64071889 23.84494419 2.31011161 25 0 C29.62 0 34.24 0 39 0 C37.41713118 3.64603562 35.83371847 7.29183346 34.25 10.9375 C33.58484375 12.46987305 33.58484375 12.46987305 32.90625 14.03320312 C30.29854134 20.0347679 27.66686378 26.02448045 25 32 C20.05 32 15.1 32 10 32 C8.57152923 27.92630745 7.14593951 23.85183583 5.72753906 19.7746582 C5.24418208 18.38800757 4.75916689 17.00193379 4.27246094 15.61645508 C3.57310047 13.62470502 2.87973282 11.63095545 2.1875 9.63671875 C1.76855469 8.43748779 1.34960938 7.23825684 0.91796875 6.00268555 C0 3 0 3 0 0 Z " fill="#FEFEFE" transform="translate(424,204)"/>
<path d="M0 0 C1.32 0 2.64 0 4 0 C4 0.99 4 1.98 4 3 C3.34 3 2.68 3 2 3 C2 3.66 2 4.32 2 5 C3.98 5 5.96 5 8 5 C8 7.31 8 9.62 8 12 C8.7425 12.0825 9.485 12.165 10.25 12.25 C13.54302595 13.14809799 14.85976788 14.38416074 17 17 C17 17.66 17 18.32 17 19 C17.63808594 19.04898438 18.27617188 19.09796875 18.93359375 19.1484375 C19.75988281 19.22320312 20.58617187 19.29796875 21.4375 19.375 C22.26121094 19.44460937 23.08492187 19.51421875 23.93359375 19.5859375 C24.61550781 19.72257812 25.29742188 19.85921875 26 20 C26.495 20.99 26.495 20.99 27 22 C24.58225419 23.20887291 23.06668936 23.12059343 20.36669922 23.11352539 C19.40585419 23.11344986 18.44500916 23.11337433 17.45504761 23.11329651 C16.41542877 23.10813522 15.37580994 23.10297394 14.3046875 23.09765625 C13.24210724 23.0962413 12.17952698 23.09482635 11.08474731 23.09336853 C7.68146991 23.08775834 4.27825762 23.07520409 0.875 23.0625 C-1.42838447 23.05748631 -3.73176997 23.05292318 -6.03515625 23.04882812 C-11.69012649 23.0377856 -17.34505859 23.02103752 -23 23 C-23 22.34 -23 21.68 -23 21 C-19.04 20.34 -15.08 19.68 -11 19 C-11 18.34 -11 17.68 -11 17 C-12.98 16.67 -14.96 16.34 -17 16 C-17 15.01 -17 14.02 -17 13 C-16.34 13 -15.68 13 -15 13 C-15.66 12.01 -16.32 11.02 -17 10 C-17 9.01 -17 8.02 -17 7 C-16.01 6.34 -15.02 5.68 -14 5 C-14.66 4.67 -15.32 4.34 -16 4 C-16 3.34 -16 2.68 -16 2 C-11.05 2.33 -6.1 2.66 -1 3 C-0.67 2.01 -0.34 1.02 0 0 Z " fill="#EFAD54" transform="translate(976,61)"/>
<path d="M0 0 C4.62 0 9.24 0 14 0 C13.34 14.19 12.68 28.38 12 43 C7.38 43 2.76 43 -2 43 C-1.01 21.715 -1.01 21.715 0 0 Z " fill="#FEFEFE" transform="translate(388,193)"/>
<path d="M0 0 C4.29 0 8.58 0 13 0 C13 1.32 13 2.64 13 4 C10.36 4.33 7.72 4.66 5 5 C10.57830016 5.12469099 10.57830016 5.12469099 16 4 C16.33 2.68 16.66 1.36 17 0 C20.96 0 24.92 0 29 0 C28.855625 0.969375 28.71125 1.93875 28.5625 2.9375 C27.93952558 7.28052169 27.46492141 11.63765234 27 16 C24.69 16.33 22.38 16.66 20 17 C19.34 18.98 18.68 20.96 18 23 C17.34 23 16.68 23 16 23 C15.67 25.64 15.34 28.28 15 31 C14.67 29.68 14.34 28.36 14 27 C13.34 27.33 12.68 27.66 12 28 C9.44842345 28.0716735 6.92527029 28.09308442 4.375 28.0625 C3.66859375 28.05798828 2.9621875 28.05347656 2.234375 28.04882812 C0.48954725 28.03703875 -1.255237 28.01910324 -3 28 C-3.042721 26.33388095 -3.04063832 24.66617115 -3 23 C-2 22 -2 22 0.5625 21.9375 C1.7690625 21.9684375 1.7690625 21.9684375 3 22 C3 22.33 3 22.66 3 23 C5.31 23.33 7.62 23.66 10 24 C10 23.34 10 22.68 10 22 C8.02 22 6.04 22 4 22 C4 20.68 4 19.36 4 18 C7.96 18 11.92 18 16 18 C16 17.34 16 16.68 16 16 C10.72 16 5.44 16 0 16 C-0.33 14.68 -0.66 13.36 -1 12 C0.32 11.34 1.64 10.68 3 10 C3 8.35 3 6.7 3 5 C1.68 4.67 0.36 4.34 -1 4 C-0.67 2.68 -0.34 1.36 0 0 Z " fill="#F7F5EA" transform="translate(597,199)"/>
<path d="M0 0 C0 3.63 0 7.26 0 11 C-1.093125 11.0825 -2.18625 11.165 -3.3125 11.25 C-6.9 11.65833333 -6.9 11.65833333 -8.6875 13.5 C-10.61527174 17.17194617 -10.56872338 20.65729702 -10.6875 24.75 C-10.72166016 25.54277344 -10.75582031 26.33554688 -10.79101562 27.15234375 C-10.87319104 29.10107504 -10.93828045 31.05051362 -11 33 C-15.62 33 -20.24 33 -25 33 C-24.34 22.44 -23.68 11.88 -23 1 C-18.33333333 1 -13.66666667 1 -9 1 C-6.04335481 -0.4783226 -3.25770263 -0.06032783 0 0 Z " fill="#FEFEFE" transform="translate(68,203)"/>
<path d="M0 0 C0 3.63 0 7.26 0 11 C-1.093125 11.061875 -2.18625 11.12375 -3.3125 11.1875 C-7.02766601 11.61063453 -7.02766601 11.61063453 -8.6875 14.03125 C-10.37702978 17.85280546 -10.55816913 21.17760739 -10.6875 25.3125 C-10.72166016 26.05306641 -10.75582031 26.79363281 -10.79101562 27.55664062 C-10.87293554 29.37058164 -10.93815822 31.18526353 -11 33 C-15.29 33 -19.58 33 -24 33 C-24.12596337 22.29311321 -23.63185341 11.68509248 -23 1 C-21.51886719 1.01740234 -21.51886719 1.01740234 -20.0078125 1.03515625 C-18.72648437 1.04417969 -17.44515625 1.05320313 -16.125 1.0625 C-14.21074219 1.07990234 -14.21074219 1.07990234 -12.2578125 1.09765625 C-8.01845242 0.97057711 -4.42666837 -0.08197534 0 0 Z " fill="#FEFEFE" transform="translate(526,203)"/>
<path d="M0 0 C9.24 0 18.48 0 28 0 C28.33 2.97 28.66 5.94 29 9 C25.89252306 10.55373847 23.25773473 9.58528628 19.875 9.0625 C18.59367188 8.86785156 17.31234375 8.67320313 15.9921875 8.47265625 C15.00476563 8.31667969 14.01734375 8.16070312 13 8 C13 8.66 13 9.32 13 10 C15.31 10 17.62 10 20 10 C20 10.33 20 10.66 20 11 C17.36 11.66 14.72 12.32 12 13 C12.66 14.98 13.32 16.96 14 19 C13.34 19 12.68 19 12 19 C12 19.99 12 20.98 12 22 C13.98 22.33 15.96 22.66 18 23 C18 23.66 18 24.32 18 25 C13.82262526 26.59138085 10.46839215 27.21278058 6 27 C6 27.66 6 28.32 6 29 C4.02 29 2.04 29 0 29 C0 19.43 0 9.86 0 0 Z " fill="#FA9A03" transform="translate(947,55)"/>
<path d="M0 0 C4.29 0 8.58 0 13 0 C12.67 10.56 12.34 21.12 12 32 C7.38 32 2.76 32 -2 32 C-1.88006336 27.92470613 -1.75739444 23.84963907 -1.62768555 19.7746582 C-1.58439782 18.38864017 -1.54271836 17.00257094 -1.50268555 15.61645508 C-1.44483416 13.62308202 -1.38070224 11.62989435 -1.31640625 9.63671875 C-1.27974854 8.43748779 -1.24309082 7.23825684 -1.20532227 6.00268555 C-1 3 -1 3 0 0 Z " fill="#FEFEFE" transform="translate(408,204)"/>
<path d="M0 0 C4.29 0 8.58 0 13 0 C13.11822138 10.73187415 12.83125944 21.29753477 12 32 C7.38 32 2.76 32 -2 32 C-1.34 21.44 -0.68 10.88 0 0 Z " fill="#FEFEFE" transform="translate(170,204)"/>
<path d="M0 0 C8.25 0 16.5 0 25 0 C25 5.28 25 10.56 25 16 C16.75 16 8.5 16 0 16 C0 10.72 0 5.44 0 0 Z " fill="#FEFEFE" transform="translate(135,67)"/>
<path d="M0 0 C1.79158489 -0.02696365 3.58328473 -0.04637917 5.375 -0.0625 C6.37273438 -0.07410156 7.37046875 -0.08570313 8.3984375 -0.09765625 C11 0 11 0 13 1 C13 2.98 13 4.96 13 7 C8.05 7.33 3.1 7.66 -2 8 C-1.34 9.98 -0.68 11.96 0 14 C2.97 14.495 2.97 14.495 6 15 C6 14.01 6 13.02 6 12 C4.35 12 2.7 12 1 12 C1 11.01 1 10.02 1 9 C2.97033203 9.01353516 2.97033203 9.01353516 4.98046875 9.02734375 C6.71617598 8.99919715 8.45185311 8.96914929 10.1875 8.9375 C11.48397461 8.95393555 11.48397461 8.95393555 12.80664062 8.97070312 C17.71638581 8.90498107 17.71638581 8.90498107 21.72900391 6.37939453 C23.30265595 4.25719223 23.30265595 4.25719223 25 1 C25.33 1.66 25.66 2.32 26 3 C28.02463255 3.65213292 28.02463255 3.65213292 30 4 C30 4.66 30 5.32 30 6 C32.31 6 34.62 6 37 6 C37.625 9.375 37.625 9.375 38 13 C36 15 36 15 32.9375 15.1875 C30 15 30 15 29 14 C28.95919217 12.00041636 28.95745644 9.99954746 29 8 C28.01 7.67 27.02 7.34 26 7 C26 6.67 26 6.34 26 6 C25.401875 6.99 24.80375 7.98 24.1875 9 C22.2342045 11.41890664 21.34926753 11.94996448 18.21875 12.3984375 C15.45794168 12.37709104 12.7481182 12.25989209 10 12 C9.8453125 13.175625 9.8453125 13.175625 9.6875 14.375 C9 17 9 17 6 19 C-0.33333333 19.33333333 -0.33333333 19.33333333 -3 18 C-3 17.34 -3 16.68 -3 16 C-3.66 16 -4.32 16 -5 16 C-6.22333253 13.55333494 -6.04546823 12.20770626 -5.8125 9.5 C-5.75707031 8.7059375 -5.70164062 7.911875 -5.64453125 7.09375 C-5 5 -5 5 -3.01171875 3.90625 C-2.34785156 3.6071875 -1.68398438 3.308125 -1 3 C-0.67 2.01 -0.34 1.02 0 0 Z " fill="#F2992C" transform="translate(618,217)"/>
<path d="M0 0 C0.66 0 1.32 0 2 0 C2 0.66 2 1.32 2 2 C3.32 2.33 4.64 2.66 6 3 C6 3.33 6 3.66 6 4 C4.35 4 2.7 4 1 4 C0.67 6.31 0.34 8.62 0 11 C-0.61875 11.04125 -1.2375 11.0825 -1.875 11.125 C-4.28614923 11.83386113 -4.28614923 11.83386113 -5.1875 14.625 C-6.01825653 18.07583483 -6.57725038 21.47708646 -7 25 C-5.700625 25.144375 -4.40125 25.28875 -3.0625 25.4375 C0.875 25.875 0.875 25.875 2 27 C2.04092937 29.33297433 2.04241723 31.66705225 2 34 C2.99 33.505 2.99 33.505 4 33 C4.68729254 30.88153715 4.68729254 30.88153715 5.125 28.4375 C5.29257812 27.61121094 5.46015625 26.78492188 5.6328125 25.93359375 C5.75398437 25.29550781 5.87515625 24.65742188 6 24 C3.69 23.67 1.38 23.34 -1 23 C-2 20 -2 20 -1 17 C-0.01 17 0.98 17 2 17 C2 17.66 2 18.32 2 19 C4.31 19 6.62 19 9 19 C10.87958381 22.17179767 11.24540054 24.33535188 11 28 C9.91093084 31.78204016 8.35837631 33.92437194 5 36 C-1.25818864 37.03947646 -7.70717632 36.44859733 -14 36 C-14 36.99 -14 37.98 -14 39 C-12.35 39 -10.7 39 -9 39 C-9 39.99 -9 40.98 -9 42 C-11.875 42.125 -11.875 42.125 -15 42 C-17 40 -17 40 -17.125 37.375 C-17.08375 36.59125 -17.0425 35.8075 -17 35 C-13.71480525 33.90493508 -11.26336585 33.90039392 -7.8125 33.9375 C-6.18248047 33.95103516 -6.18248047 33.95103516 -4.51953125 33.96484375 C-3.68808594 33.97644531 -2.85664062 33.98804688 -2 34 C-2 32.02 -2 30.04 -2 28 C-6.29 27.67 -10.58 27.34 -15 27 C-15.33 28.32 -15.66 29.64 -16 31 C-16.66 30.67 -17.32 30.34 -18 30 C-18 28.33333333 -18 26.66666667 -18 25 C-15.03 25 -12.06 25 -9 25 C-9.04125 23.63875 -9.0825 22.2775 -9.125 20.875 C-9.1376134 16.8828592 -8.52922788 13.72749297 -7 10 C-6.01 10 -5.02 10 -4 10 C-3.67 8.68 -3.34 7.36 -3 6 C-2.34 6 -1.68 6 -1 6 C-0.67 4.02 -0.34 2.04 0 0 Z " fill="#F5E6D1" transform="translate(633,190)"/>
<path d="M0 0 C1.32 0 2.64 0 4 0 C4 0.99 4 1.98 4 3 C3.34 3 2.68 3 2 3 C2 3.66 2 4.32 2 5 C3.98 5 5.96 5 8 5 C8 7.31 8 9.62 8 12 C10.475 12.495 10.475 12.495 13 13 C13.33 14.65 13.66 16.3 14 18 C13.34 18 12.68 18 12 18 C11.67 17.01 11.34 16.02 11 15 C10.34 15 9.68 15 9 15 C8.67 15.99 8.34 16.98 8 18 C8.99 18 9.98 18 11 18 C11 18.66 11 19.32 11 20 C9.35 19.67 7.7 19.34 6 19 C6 18.34 6 17.68 6 17 C3.36 17 0.72 17 -2 17 C-2.33 17.99 -2.66 18.98 -3 20 C-4.65 20 -6.3 20 -8 20 C-8.77640617 16.20423648 -8.92615041 13.70460164 -8 10 C-8.27050453 7.99053778 -8.59367909 5.98645776 -9 4 C-11.31 4 -13.62 4 -16 4 C-16 3.34 -16 2.68 -16 2 C-11.05 2.33 -6.1 2.66 -1 3 C-0.67 2.01 -0.34 1.02 0 0 Z " fill="#EED4AE" transform="translate(976,61)"/>
<path d="M0 0 C4.29 0 8.58 0 13 0 C13 1.32 13 2.64 13 4 C10.36 4.33 7.72 4.66 5 5 C10.57830016 5.12469099 10.57830016 5.12469099 16 4 C16.33 2.68 16.66 1.36 17 0 C20.96 0 24.92 0 29 0 C28.49547781 3.74787912 27.91840767 7.32636934 27 11 C22.71 11 18.42 11 14 11 C13.67 10.34 13.34 9.68 13 9 C12.67 9.33 12.34 9.66 12 10 C10.48071962 10.07179964 8.95832518 10.08392007 7.4375 10.0625 C6.61121094 10.05347656 5.78492188 10.04445312 4.93359375 10.03515625 C4.29550781 10.02355469 3.65742187 10.01195312 3 10 C3 8.35 3 6.7 3 5 C1.68 4.67 0.36 4.34 -1 4 C-0.67 2.68 -0.34 1.36 0 0 Z " fill="#F5E3C0" transform="translate(597,199)"/>
<path d="M0 0 C0.66 0.33 1.32 0.66 2 1 C1.67 1.66 1.34 2.32 1 3 C0.58492826 9.31645868 0.58492826 9.31645868 3 15 C5.31 15 7.62 15 10 15 C10 15.33 10 15.66 10 16 C-3.2 16 -16.4 16 -30 16 C-30 15.34 -30 14.68 -30 14 C-30.66 14 -31.32 14 -32 14 C-31.67 12.68 -31.34 11.36 -31 10 C-31 10.66 -31 11.32 -31 12 C-30.34 12 -29.68 12 -29 12 C-29 12.66 -29 13.32 -29 14 C-27.56344146 14.08131463 -26.1255517 14.13933559 -24.6875 14.1875 C-23.88699219 14.22230469 -23.08648438 14.25710937 -22.26171875 14.29296875 C-19.94170087 14.18434168 -19.94170087 14.18434168 -18.26953125 12.67578125 C-16.79254359 10.91230916 -16.79254359 10.91230916 -16 8 C-14.89591797 8.01353516 -14.89591797 8.01353516 -13.76953125 8.02734375 C-8.01508208 8.01743311 -8.01508208 8.01743311 -3.15625 5.375 C-1.62667753 3.25290984 -1.62667753 3.25290984 0 0 Z " fill="#F9F9F1" transform="translate(644,221)"/>
<path d="M0 0 C1.32 0 2.64 0 4 0 C4 0.99 4 1.98 4 3 C5.0725 2.896875 6.145 2.79375 7.25 2.6875 C11 3 11 3 13.4375 5.125 C15.28042686 8.51598543 15.63358675 10.19847951 15 14 C13.5625 16.875 13.5625 16.875 11 19 C7.8787862 19.64790539 5.12345194 19.62705664 2 19 C-0.0625 17.4375 -0.0625 17.4375 -1 15 C-1.1875 11.25 -1.1875 11.25 -1 8 C-0.01 8 0.98 8 2 8 C2.33 9.98 2.66 11.96 3 14 C4.99954746 14.04254356 7.00041636 14.04080783 9 14 C10.41577477 12.81575674 10.41577477 12.81575674 10.0625 9.4375 C10.041875 8.303125 10.02125 7.16875 10 6 C7.69 6 5.38 6 3 6 C2.67 5.34 2.34 4.68 2 4 C1.01 3.67 0.02 3.34 -1 3 C-0.67 2.01 -0.34 1.02 0 0 Z " fill="#ED7F2B" transform="translate(645,217)"/>
<path d="M0 0 C3.63 0 7.26 0 11 0 C11.66 1.32 12.32 2.64 13 4 C12.34 4 11.68 4 11 4 C10.67 6.64 10.34 9.28 10 12 C9.67 10.68 9.34 9.36 9 8 C8.01 8.495 8.01 8.495 7 9 C4.44842345 9.0716735 1.92527029 9.09308442 -0.625 9.0625 C-1.33140625 9.05798828 -2.0378125 9.05347656 -2.765625 9.04882812 C-4.51045275 9.03703875 -6.255237 9.01910324 -8 9 C-8.042721 7.33388095 -8.04063832 5.66617115 -8 4 C-7 3 -7 3 -4.4375 2.9375 C-3.2309375 2.9684375 -3.2309375 2.9684375 -2 3 C-2 3.33 -2 3.66 -2 4 C0.31 4.33 2.62 4.66 5 5 C5 4.34 5 3.68 5 3 C3.35 3 1.7 3 0 3 C0 2.01 0 1.02 0 0 Z " fill="#F9F5E5" transform="translate(602,218)"/>
<path d="M0 0 C0.99 0.33 1.98 0.66 3 1 C3 1.99 3 2.98 3 4 C3.66 4 4.32 4 5 4 C5.33 3.01 5.66 2.02 6 1 C6.23589844 1.64710937 6.47179687 2.29421875 6.71484375 2.9609375 C7.80573801 5.2110395 7.80573801 5.2110395 10.12890625 5.5390625 C11.33353516 5.58160156 11.33353516 5.58160156 12.5625 5.625 C15.00390625 5.7265625 15.00390625 5.7265625 17 6 C17.33 6.66 17.66 7.32 18 8 C15.70112683 9.14943658 14.37909386 9.12898906 11.82421875 9.1328125 C10.99599609 9.13410156 10.16777344 9.13539062 9.31445312 9.13671875 C8.44755859 9.13285156 7.58066406 9.12898438 6.6875 9.125 C5.83220703 9.12886719 4.97691406 9.13273437 4.09570312 9.13671875 C-0.06290869 9.13027628 -3.94591946 9.05322505 -8 8 C-8 6.68 -8 5.36 -8 4 C-8.99 4.33 -9.98 4.66 -11 5 C-11 4.34 -11 3.68 -11 3 C-8.36 3 -5.72 3 -3 3 C-3 3.66 -3 4.32 -3 5 C-1.35 5.33 0.3 5.66 2 6 C2 5.34 2 4.68 2 4 C1.01 4 0.02 4 -1 4 C-0.67 2.68 -0.34 1.36 0 0 Z " fill="#F28D2C" transform="translate(985,75)"/>
<path d="M0 0 C2.80046013 0 5.5597439 0.09920316 8.3515625 0.3125 C7.81175903 3.70555036 7.18605439 6.97453244 6.3515625 10.3125 C2.3915625 10.3125 -1.5684375 10.3125 -5.6484375 10.3125 C-5.6484375 0.6664823 -5.6484375 0.6664823 0 0 Z " fill="#F2981C" transform="translate(617.6484375,199.6875)"/>
<path d="M0 0 C4.29 0 8.58 0 13 0 C13 2.31 13 4.62 13 7 C8.71 7 4.42 7 0 7 C0 4.69 0 2.38 0 0 Z " fill="#FEFEFE" transform="translate(408,193)"/>
<path d="M0 0 C4.29 0 8.58 0 13 0 C13 2.31 13 4.62 13 7 C8.71 7 4.42 7 0 7 C0 4.69 0 2.38 0 0 Z " fill="#FEFEFE" transform="translate(170,193)"/>
<path d="M0 0 C2.31309705 0.11341637 4.62550185 0.24103807 6.9375 0.375 C8.86916016 0.47941406 8.86916016 0.47941406 10.83984375 0.5859375 C12.40412109 0.79089844 12.40412109 0.79089844 14 1 C15.33332095 3.6666419 14.67102033 5.16680303 14 8 C15.32 8 16.64 8 18 8 C18.33 9.65 18.66 11.3 19 13 C16.36 13 13.72 13 11 13 C11 13.66 11 14.32 11 15 C10.34 15 9.68 15 9 15 C9 14.01 9 13.02 9 12 C11.31 12 13.62 12 16 12 C15.67 11.34 15.34 10.68 15 10 C13.02 10 11.04 10 9 10 C7.23537317 6.91190305 7 5.76687864 7 2 C4.69 2 2.38 2 0 2 C0 1.34 0 0.68 0 0 Z " fill="#EEB369" transform="translate(960,63)"/>
<path d="M0 0 C0.66 0.33 1.32 0.66 2 1 C4.71262116 1.2322646 7.40773126 1.41936235 10.125 1.5625 C11.25615234 1.62727539 11.25615234 1.62727539 12.41015625 1.69335938 C14.27321888 1.7994832 16.13658524 1.90025001 18 2 C18 2.66 18 3.32 18 4 C14.04 4 10.08 4 6 4 C6 5.32 6 6.64 6 8 C7.98 8 9.96 8 12 8 C12 8.66 12 9.32 12 10 C8.7 10 5.4 10 2 10 C1.34 8.68 0.68 7.36 0 6 C-0.66 5.67 -1.32 5.34 -2 5 C-1.34 3.35 -0.68 1.7 0 0 Z " fill="#F6F9F2" transform="translate(595,213)"/>
<path d="M0 0 C0.99 0 1.98 0 3 0 C3 0.66 3 1.32 3 2 C5.31 2 7.62 2 10 2 C11.85776765 5.13498292 12.20140476 7.37471432 12 11 C10.02 11.99 10.02 11.99 8 13 C8 11.02 8 9.04 8 7 C5.36 6.67 2.72 6.34 0 6 C-1 3 -1 3 0 0 Z " fill="#F4E9D6" transform="translate(632,207)"/>
<path d="M0 0 C0.66 0 1.32 0 2 0 C2 0.66 2 1.32 2 2 C3.32 2.33 4.64 2.66 6 3 C6 3.33 6 3.66 6 4 C4.35 4 2.7 4 1 4 C0.67 6.31 0.34 8.62 0 11 C-0.61875 11.04125 -1.2375 11.0825 -1.875 11.125 C-4.27421508 11.83170943 -4.27421508 11.83170943 -5.1875 14.5625 C-6.09252592 18.39145582 -6.59528773 22.08778139 -7 26 C-7.66 26 -8.32 26 -9 26 C-9.20413361 20.26157749 -9.27141454 15.39460953 -7 10 C-6.01 10 -5.02 10 -4 10 C-3.67 8.68 -3.34 7.36 -3 6 C-2.34 6 -1.68 6 -1 6 C-0.67 4.02 -0.34 2.04 0 0 Z " fill="#F3EEDA" transform="translate(633,190)"/>
<path d="M0 0 C1.81242052 -0.02687279 3.62495233 -0.04633715 5.4375 -0.0625 C6.44683594 -0.07410156 7.45617187 -0.08570313 8.49609375 -0.09765625 C11 0 11 0 12 1 C12 2.65 12 4.3 12 6 C7.38 6 2.76 6 -2 6 C-1.34 4.02 -0.68 2.04 0 0 Z " fill="#F5911A" transform="translate(618,217)"/>
<path d="M0 0 C0.33 0 0.66 0 1 0 C1 1.98 1 3.96 1 6 C1.66 6.33 2.32 6.66 3 7 C1.609375 9.48046875 1.609375 9.48046875 -1 12 C-4.2642853 12.63790959 -7.43960423 12.47141856 -10.75 12.3125 C-11.63816406 12.28994141 -12.52632812 12.26738281 -13.44140625 12.24414062 C-15.62932812 12.18532552 -17.81379671 12.10321268 -20 12 C-20 12.99 -20 13.98 -20 15 C-18.35 15 -16.7 15 -15 15 C-15 15.99 -15 16.98 -15 18 C-17.875 18.125 -17.875 18.125 -21 18 C-23 16 -23 16 -23.125 13.375 C-23.08375 12.59125 -23.0425 11.8075 -23 11 C-22.15236084 10.96241577 -22.15236084 10.96241577 -21.28759766 10.92407227 C-18.73316258 10.80820044 -16.1791045 10.68543463 -13.625 10.5625 C-12.29082031 10.50352539 -12.29082031 10.50352539 -10.9296875 10.44335938 C-9.65351562 10.38051758 -9.65351562 10.38051758 -8.3515625 10.31640625 C-7.56604004 10.27974854 -6.78051758 10.24309082 -5.97119141 10.20532227 C-3.92476504 10.109109 -3.92476504 10.109109 -2 9 C-1.31270746 6.88153715 -1.31270746 6.88153715 -0.875 4.4375 C-0.70742188 3.61121094 -0.53984375 2.78492188 -0.3671875 1.93359375 C-0.24601563 1.29550781 -0.12484375 0.65742188 0 0 Z " fill="#F3D4AF" transform="translate(639,214)"/>
<path d="M0 0 C1.32 0 2.64 0 4 0 C4 0.99 4 1.98 4 3 C5.0725 2.896875 6.145 2.79375 7.25 2.6875 C11 3 11 3 13.4375 5.125 C15.20830209 8.38327585 15.33975517 10.34763197 15 14 C14.01 14 13.02 14 12 14 C11.34 11.36 10.68 8.72 10 6 C7.69 6 5.38 6 3 6 C2.67 5.34 2.34 4.68 2 4 C1.01 3.67 0.02 3.34 -1 3 C-0.67 2.01 -0.34 1.02 0 0 Z " fill="#F16A0E" transform="translate(645,217)"/>
<path d="M0 0 C2.31 0.33 4.62 0.66 7 1 C6.814375 1.886875 6.62875 2.77375 6.4375 3.6875 C6.01957516 6.85178811 6.19222258 8.94839642 7 12 C7.721875 11.87625 8.44375 11.7525 9.1875 11.625 C12 12 12 12 14.8125 14.5625 C17.40361534 17.95524165 17.42320237 20.76797628 17 25 C16.67 25 16.34 25 16 25 C15.71125 23.906875 15.4225 22.81375 15.125 21.6875 C14.18106796 17.95986155 14.18106796 17.95986155 12 15 C8.43230448 14.26393501 8.43230448 14.26393501 5 14 C2.51112628 9.31506124 3.14312227 6.0555786 4 1 C2.68 0.67 1.36 0.34 0 0 Z " fill="#F3DABF" transform="translate(644,206)"/>
<path d="M0 0 C0.66 0.33 1.32 0.66 2 1 C1.745504 2.48206495 1.47088238 3.96068615 1.1875 5.4375 C1.03667969 6.26121094 0.88585937 7.08492187 0.73046875 7.93359375 C0.48941406 8.61550781 0.24835937 9.29742187 0 10 C-3.42232972 11.14077657 -6.08673217 11.09815117 -9.6875 11.0625 C-11.45673828 11.04896484 -11.45673828 11.04896484 -13.26171875 11.03515625 C-14.16535156 11.02355469 -15.06898438 11.01195312 -16 11 C-16 10.01 -16 9.02 -16 8 C-14.89591797 8.01353516 -14.89591797 8.01353516 -13.76953125 8.02734375 C-8.01508208 8.01743311 -8.01508208 8.01743311 -3.15625 5.375 C-1.62667753 3.25290984 -1.62667753 3.25290984 0 0 Z " fill="#F4EFE3" transform="translate(644,221)"/>
<path d="M0 0 C1.32 0 2.64 0 4 0 C4 0.99 4 1.98 4 3 C3.34 3 2.68 3 2 3 C2 3.66 2 4.32 2 5 C3.98 5 5.96 5 8 5 C8 6.98 8 8.96 8 11 C6.02 11.99 6.02 11.99 4 13 C4 11.68 4 10.36 4 9 C2.68 9 1.36 9 0 9 C0.33 7.35 0.66 5.7 1 4 C0.34 3.67 -0.32 3.34 -1 3 C-0.67 2.01 -0.34 1.02 0 0 Z " fill="#EFC088" transform="translate(976,61)"/>
<path d="M0 0 C2.33944736 0.28730055 4.6739143 0.61936779 7 1 C7.125 3.375 7.125 3.375 7 6 C5 8 5 8 2.375 8.125 C1.59125 8.08375 0.8075 8.0425 0 8 C-0.38063221 5.6739143 -0.71269945 3.33944736 -1 1 C-0.67 0.67 -0.34 0.34 0 0 Z " fill="#F5EAD8" transform="translate(649,224)"/>
<path d="M0 0 C3.63 0 7.26 0 11 0 C10.67 1.32 10.34 2.64 10 4 C9.34 4 8.68 4 8 4 C8 4.66 8 5.32 8 6 C5.36 6 2.72 6 0 6 C0 4.02 0 2.04 0 0 Z " fill="#F79204" transform="translate(614,201)"/>
<path d="M0 0 C4.29 0 8.58 0 13 0 C13 1.32 13 2.64 13 4 C8.38 4 3.76 4 -1 4 C-0.67 2.68 -0.34 1.36 0 0 Z " fill="#F5C675" transform="translate(597,199)"/>
<path d="M0 0 C0.33 0.66 0.66 1.32 1 2 C3.02463255 2.65213292 3.02463255 2.65213292 5 3 C5 3.66 5 4.32 5 5 C7.31 5 9.62 5 12 5 C11.67 5.66 11.34 6.32 11 7 C9.35 7 7.7 7 6 7 C6 9.31 6 11.62 6 14 C5.34 13.67 4.68 13.34 4 13 C4 11.02 4 9.04 4 7 C3.01 6.67 2.02 6.34 1 6 C1 5.67 1 5.34 1 5 C-0.32 6.32 -1.64 7.64 -3 9 C-3.66 8.34 -4.32 7.68 -5 7 C-3.35 4.69 -1.7 2.38 0 0 Z " fill="#EE8B35" transform="translate(643,218)"/>
<path d="M0 0 C3.96 0 7.92 0 12 0 C12 3.3 12 6.6 12 10 C10.68 10.33 9.36 10.66 8 11 C7.34 7.7 6.68 4.4 6 1 C4.02 1 2.04 1 0 1 C0 0.67 0 0.34 0 0 Z " fill="#EF8225" transform="translate(636,207)"/>
<path d="M0 0 C4.29 0 8.58 0 13 0 C12.67 0.99 12.34 1.98 12 3 C7.71 3.66 3.42 4.32 -1 5 C-1.33 4.01 -1.66 3.02 -2 2 C-1.34 2 -0.68 2 0 2 C0 1.34 0 0.68 0 0 Z " fill="#F7F5E5" transform="translate(596,227)"/>
<path d="M0 0 C3.96 0 7.92 0 12 0 C12 1.65 12 3.3 12 5 C8.7 5 5.4 5 2 5 C2 4.01 2 3.02 2 2 C1.34 1.34 0.68 0.68 0 0 Z " fill="#F1BD79" transform="translate(612,210)"/>
<path d="M0 0 C0.20625 0.5775 0.4125 1.155 0.625 1.75 C2.56471902 4.92408567 4.73561782 6.27179767 8 8 C10.79561167 7.87754191 10.79561167 7.87754191 13 7 C12 10 12 10 10 11 C7.6670134 11.04022391 5.33293334 11.04320247 3 11 C2.67 9.68 2.34 8.36 2 7 C1.34 7 0.68 7 0 7 C0 4.69 0 2.38 0 0 Z " fill="#EEA545" transform="translate(614,225)"/>
<path d="M0 0 C2.64 0 5.28 0 8 0 C8 0.66 8 1.32 8 2 C9.32 2.33 10.64 2.66 12 3 C12 3.99 12 4.98 12 6 C9.03 5.67 6.06 5.34 3 5 C3 3.68 3 2.36 3 1 C2.01 1.33 1.02 1.66 0 2 C0 1.34 0 0.68 0 0 Z " fill="#EF922A" transform="translate(974,78)"/>
<path d="M0 0 C4.75 0.875 4.75 0.875 7 2 C6.67 2.99 6.34 3.98 6 5 C6.66 5.33 7.32 5.66 8 6 C8 8.31 8 10.62 8 13 C9.32 13 10.64 13 12 13 C11.67 13.66 11.34 14.32 11 15 C9.68 14.67 8.36 14.34 7 14 C7 11.69 7 9.38 7 7 C5.02 7 3.04 7 1 7 C1 6.34 1 5.68 1 5 C1.66 5 2.32 5 3 5 C3 4.01 3 3.02 3 2 C2.01 2 1.02 2 0 2 C0 1.34 0 0.68 0 0 Z " fill="#EE9025" transform="translate(977,59)"/>
<path d="M0 0 C4.62 0 9.24 0 14 0 C14 0.99 14 1.98 14 3 C9.71 3 5.42 3 1 3 C0.67 2.01 0.34 1.02 0 0 Z " fill="#F4AF41" transform="translate(596,212)"/>
<path d="M0 0 C0.33 0.99 0.66 1.98 1 3 C0.01 3.33 -0.98 3.66 -2 4 C-2 4.99 -2 5.98 -2 7 C-0.35 7 1.3 7 3 7 C3 7.99 3 8.98 3 10 C0.36 10 -2.28 10 -5 10 C-5.66 8.35 -6.32 6.7 -7 5 C-6.01 5 -5.02 5 -4 5 C-4 4.01 -4 3.02 -4 2 C-2.68 2 -1.36 2 0 2 C0 1.34 0 0.68 0 0 Z " fill="#F4DBBC" transform="translate(641,196)"/>
<path d="M0 0 C3.96 0 7.92 0 12 0 C12.33 0.99 12.66 1.98 13 3 C8.71 3 4.42 3 0 3 C0 2.01 0 1.02 0 0 Z " fill="#F3B84B" transform="translate(596,224)"/>
<path d="M0 0 C0.33 0.66 0.66 1.32 1 2 C-2.00313748 3.50156874 -4.79067522 3.09281204 -8.125 3.0625 C-9.40632812 3.05347656 -10.68765625 3.04445313 -12.0078125 3.03515625 C-13.48894531 3.01775391 -13.48894531 3.01775391 -15 3 C-14.67 2.34 -14.34 1.68 -14 1 C-9.45906828 -0.41904116 -4.7056901 -0.09226843 0 0 Z " fill="#EFA55C" transform="translate(1002,81)"/>
<path d="M0 0 C0.70125 0.01417969 1.4025 0.02835938 2.125 0.04296875 C3.176875 0.05263672 3.176875 0.05263672 4.25 0.0625 C6.125 0.23046875 6.125 0.23046875 8.125 1.23046875 C9.79119446 1.27014005 11.45891013 1.27431322 13.125 1.23046875 C12.795 2.22046875 12.465 3.21046875 12.125 4.23046875 C6.845 3.57046875 1.565 2.91046875 -3.875 2.23046875 C-1.875 0.23046875 -1.875 0.23046875 0 0 Z " fill="#F29621" transform="translate(962.875,60.76953125)"/>
<path d="M0 0 C4.29 0.33 8.58 0.66 13 1 C12.67 2.32 12.34 3.64 12 5 C10.35 5 8.7 5 7 5 C7 4.01 7 3.02 7 2 C4.69 2 2.38 2 0 2 C0 1.34 0 0.68 0 0 Z " fill="#F5E4C2" transform="translate(960,63)"/>
<path d="M0 0 C0.99 0 1.98 0 3 0 C3 1.32 3 2.64 3 4 C4.65 4 6.3 4 8 4 C8 4.99 8 5.98 8 7 C5.125 7.125 5.125 7.125 2 7 C0 5 0 5 -0.125 2.375 C-0.08375 1.59125 -0.0425 0.8075 0 0 Z " fill="#F2E3C6" transform="translate(616,225)"/>
<path d="M0 0 C3.63 0 7.26 0 11 0 C11 0.99 11 1.98 11 3 C7.37 3 3.74 3 0 3 C0 2.01 0 1.02 0 0 Z " fill="#F0B64F" transform="translate(602,218)"/>
<path d="M0 0 C1.32 0 2.64 0 4 0 C4 0.99 4 1.98 4 3 C6.31 3 8.62 3 11 3 C9.8125 4.5 9.8125 4.5 8 6 C5.3125 6.1875 5.3125 6.1875 3 6 C2.67 5.34 2.34 4.68 2 4 C1.01 3.67 0.02 3.34 -1 3 C-0.67 2.01 -0.34 1.02 0 0 Z " fill="#ED7914" transform="translate(645,217)"/>
<path d="M0 0 C0.78375 0.04125 1.5675 0.0825 2.375 0.125 C2.705 1.115 3.035 2.105 3.375 3.125 C1.065 3.125 -1.245 3.125 -3.625 3.125 C-3.625 4.445 -3.625 5.765 -3.625 7.125 C-2.635 7.455 -1.645 7.785 -0.625 8.125 C-2.275 7.795 -3.925 7.465 -5.625 7.125 C-4.53409091 0.21590909 -4.53409091 0.21590909 0 0 Z " fill="#F2ECD6" transform="translate(972.625,71.875)"/>
<path d="M0 0 C0.99 0 1.98 0 3 0 C3.33 1.98 3.66 3.96 4 6 C4.99 6.33 5.98 6.66 7 7 C7 7.66 7 8.32 7 9 C1.125 8.125 1.125 8.125 0 7 C-0.04092937 4.66702567 -0.04241723 2.33294775 0 0 Z " fill="#F1750A" transform="translate(644,225)"/>
<path d="M0 0 C2.31 0.33 4.62 0.66 7 1 C6.67 1.99 6.34 2.98 6 4 C4.68 4 3.36 4 2 4 C1.67 4.99 1.34 5.98 1 7 C0 4 0 4 0 0 Z " fill="#F58A05" transform="translate(975,55)"/>
<path d="M0 0 C1.98 0.99 1.98 0.99 4 2 C4 3.65 4 5.3 4 7 C2.02 7.99 2.02 7.99 0 9 C0 6.03 0 3.06 0 0 Z " fill="#F3F5E9" transform="translate(640,211)"/>
<path d="M0 0 C8.91 0 17.82 0 27 0 C27 0.33 27 0.66 27 1 C18.09 1 9.18 1 0 1 C0 0.67 0 0.34 0 0 Z " fill="#F9F9F9" transform="translate(472,1)"/>
<path d="M0 0 C8.91 0 17.82 0 27 0 C27 0.33 27 0.66 27 1 C18.09 1 9.18 1 0 1 C0 0.67 0 0.34 0 0 Z " fill="#F9F9F9" transform="translate(62,1)"/>
<path d="M0 0 C0.33 1.65 0.66 3.3 1 5 C-1.31 5 -3.62 5 -6 5 C-6 4.01 -6 3.02 -6 2 C-3 0 -3 0 0 0 Z " fill="#F1BB6E" transform="translate(965,66)"/>
<path d="M0 0 C1.65 0 3.3 0 5 0 C5 0.99 5 1.98 5 3 C4.01 3 3.02 3 2 3 C2 3.99 2 4.98 2 6 C1.01 6 0.02 6 -1 6 C-0.67 4.02 -0.34 2.04 0 0 Z " fill="#F08110" transform="translate(634,194)"/>
<path d="M0 0 C0.66 0 1.32 0 2 0 C2 1.98 2 3.96 2 6 C-1 6 -1 6 -2.6875 4.5 C-3.120625 4.005 -3.55375 3.51 -4 3 C-2.68 2.67 -1.36 2.34 0 2 C0 1.34 0 0.68 0 0 Z " fill="#F8FAF5" transform="translate(662,218)"/>
<path d="M0 0 C0.66 0 1.32 0 2 0 C2 0.66 2 1.32 2 2 C3.32 2.33 4.64 2.66 6 3 C6 3.33 6 3.66 6 4 C4.35 4 2.7 4 1 4 C0.67 5.65 0.34 7.3 0 9 C-0.33 9 -0.66 9 -1 9 C-1.125 2.25 -1.125 2.25 0 0 Z " fill="#F4DDBA" transform="translate(633,190)"/>
<path d="M0 0 C0.66 0.33 1.32 0.66 2 1 C1.34 3.97 0.68 6.94 0 10 C-0.33 9.01 -0.66 8.02 -1 7 C-2.32 7.33 -3.64 7.66 -5 8 C-3.35 5.36 -1.7 2.72 0 0 Z " fill="#EFCAA7" transform="translate(644,221)"/>
<path d="M0 0 C0.33 0 0.66 0 1 0 C1 2.64 1 5.28 1 8 C0.34 8 -0.32 8 -1 8 C-1 7.34 -1 6.68 -1 6 C-1.99 5.67 -2.98 5.34 -4 5 C-3.67 4.01 -3.34 3.02 -3 2 C-2.34 2 -1.68 2 -1 2 C-0.67 1.34 -0.34 0.68 0 0 Z " fill="#F9F1E8" transform="translate(643,190)"/>
<path d="M0 0 C2.31 0.66 4.62 1.32 7 2 C7.33 3.65 7.66 5.3 8 7 C7.34 7 6.68 7 6 7 C5.67 6.01 5.34 5.02 5 4 C4.34 3.835 3.68 3.67 3 3.5 C2.34 3.335 1.68 3.17 1 3 C0.67 2.01 0.34 1.02 0 0 Z " fill="#F3E4CC" transform="translate(982,72)"/>
<path d="M0 0 C1.02645274 2.05290548 2.04560413 4.09975903 3 6.1875 C3.87144569 8.17201523 3.87144569 8.17201523 6 9 C4.68 9 3.36 9 2 9 C2 8.34 2 7.68 2 7 C1.34 7 0.68 7 0 7 C0 4.69 0 2.38 0 0 Z " fill="#F5950E" transform="translate(614,225)"/>
<path d="M0 0 C2.31 0 4.62 0 7 0 C7 0.99 7 1.98 7 3 C4.69 3 2.38 3 0 3 C0 2.01 0 1.02 0 0 Z " fill="#F1BC59" transform="translate(602,206)"/>
<path d="M0 0 C0.66 0 1.32 0 2 0 C2 0.99 2 1.98 2 3 C2.99 2.67 3.98 2.34 5 2 C4.34 3.98 3.68 5.96 3 8 C2.34 8 1.68 8 1 8 C0.67 5.36 0.34 2.72 0 0 Z " fill="#EF9034" transform="translate(634,216)"/>
<path d="M0 0 C1.98 0 3.96 0 6 0 C6 0.99 6 1.98 6 3 C3.69 3 1.38 3 -1 3 C-0.67 2.01 -0.34 1.02 0 0 Z " fill="#F58806" transform="translate(623,218)"/>
<path d="M0 0 C0.66 0 1.32 0 2 0 C1.67 1.65 1.34 3.3 1 5 C1.99 5 2.98 5 4 5 C4 6.65 4 8.3 4 10 C3.67 8.68 3.34 7.36 3 6 C1.68 6 0.36 6 -1 6 C-1.042721 4.33388095 -1.04063832 2.66617115 -1 1 C-0.67 0.67 -0.34 0.34 0 0 Z " fill="#EEEFDA" transform="translate(975,65)"/>
<path d="M0 0 C1.485 0.99 1.485 0.99 3 2 C3 2.66 3 3.32 3 4 C5.31 4 7.62 4 10 4 C10 4.33 10 4.66 10 5 C6.7 5 3.4 5 0 5 C0 3.35 0 1.7 0 0 Z " fill="#F5E3D0" transform="translate(644,232)"/>
<path d="M0 0 C0 0.66 0 1.32 0 2 C0.99 2.33 1.98 2.66 3 3 C3 3.33 3 3.66 3 4 C1.35 4 -0.3 4 -2 4 C-2 3.34 -2 2.68 -2 2 C-3.32 1.67 -4.64 1.34 -6 1 C-3.92446352 0.4465236 -2.15634036 0 0 0 Z " fill="#F1AA48" transform="translate(965,80)"/>
</svg>
